<svg width="20" height="20" viewBox="0 0 20 20" fill="none" xmlns="http://www.w3.org/2000/svg">
<path d="M10 5.00002C6.6863 5.00002 4.00002 7.6863 4.00002 11C4.00002 14.3137 6.6863 17 10 17C13.3137 17 16 14.3137 16 11C16 7.6863 13.3137 5.00002 10 5.00002ZM12.402 13.2761C12.402 13.5662 12.1682 13.8014 11.8798 13.8014H8.12026C7.83187 13.8014 7.59804 13.5662 7.59804 13.2761V12.7153C7.59804 12.5808 7.64937 12.4514 7.74135 12.3538L10.5808 9.34255V9.31917H8.25966C7.97127 9.31917 7.73744 9.084 7.73744 8.7939V8.72389C7.73744 8.43379 7.97127 8.19862 8.25966 8.19862H11.7404C12.0288 8.19862 12.2626 8.43379 12.2626 8.72389V9.26179C12.2626 9.39601 12.2115 9.5251 12.1199 9.62263L9.24581 12.6809H11.8798C12.1682 12.6809 12.402 12.916 12.402 13.2061V13.2761ZM17.4487 7.31612C17.2037 7.56118 16.8064 7.56118 16.5614 7.31612L13.6839 4.43868C13.4389 4.19362 13.4389 3.79635 13.6839 3.55129C14.4189 2.81624 15.6106 2.81624 16.3457 3.55129L17.4487 4.65438C18.1838 5.38943 18.1838 6.58114 17.4487 7.31612ZM6.31618 4.43868L3.43868 7.31612C3.19362 7.56118 2.79635 7.56118 2.55129 7.31612C1.81624 6.58114 1.81624 5.38942 2.55129 4.65438L3.65438 3.55129C4.38943 2.81624 5.58114 2.81624 6.31618 3.55129C6.56118 3.79635 6.56118 4.19362 6.31618 4.43868Z" fill="currentColor"/>
</svg>
