<svg width="20" height="20" viewBox="0 0 20 20" fill="none" xmlns="http://www.w3.org/2000/svg">
<path d="M17.7263 15.4968L13.9419 12.3953C14.6079 11.4289 15 10.2598 15 9C15 5.69141 12.3086 3 9.00001 3C5.69142 3 3 5.6914 3 8.99999C3 9.45067 3.05414 9.88866 3.1488 10.311L6.2846 7.17529C6.50768 6.95215 6.87908 6.98901 7.05413 7.25146L8.51659 9.44433L11.8457 6.11425C12.0409 5.91894 12.3576 5.91894 12.5528 6.11425L12.9063 6.46777C13.1015 6.66308 13.1015 6.97949 12.9064 7.1748L8.71537 11.3664C8.49229 11.5896 8.12083 11.553 7.94578 11.2905L6.48338 9.09765L3.72459 11.8564C4.74162 13.7273 6.72483 15 8.99998 15C10.2599 15 11.4289 14.6079 12.3952 13.9419L15.4968 17.7263C15.6842 17.9551 16.028 17.9719 16.2371 17.7629L17.7629 16.237C17.9719 16.0281 17.955 15.6841 17.7263 15.4968Z" fill="currentColor"/>
</svg>
