<svg width="20" height="20" viewBox="0 0 20 20" fill="none" xmlns="http://www.w3.org/2000/svg">
<path d="M16.7069 9.64644L11.707 4.64652C11.5117 4.45126 11.1951 4.45123 10.9999 4.64649L10.2929 5.35345C10.0977 5.54872 10.0977 5.8653 10.2929 6.06056L14.2323 9.99998L10.2929 13.9394C10.0977 14.1347 10.0977 14.4513 10.2929 14.6465L10.9999 15.3535C11.1952 15.5487 11.5117 15.5487 11.707 15.3535L16.7069 10.3536C16.9022 10.1583 16.9022 9.8417 16.7069 9.64644Z" fill="currentColor"/>
<path d="M9.70692 9.64645L4.707 4.64652C4.51173 4.45126 4.19516 4.45125 3.9999 4.64651L3.29294 5.35347C3.09768 5.54874 3.09768 5.86532 3.29294 6.06058L7.23235 9.99999L3.29293 13.9394C3.09767 14.1347 3.09767 14.4513 3.29293 14.6465L3.99989 15.3535C4.19516 15.5487 4.51174 15.5487 4.707 15.3535L9.70692 10.3536C9.90218 10.1583 9.90218 9.84171 9.70692 9.64645Z" fill="currentColor"/>
</svg>
