<svg width="20" height="20" viewBox="0 0 20 20" fill="none" xmlns="http://www.w3.org/2000/svg">
<path d="M13.0897 6.91053C12.5595 6.38038 11.9692 5.89216 11.3534 5.44581C11.9718 5.07166 12.5282 4.85536 12.7736 4.77039C12.7835 4.78022 12.7932 4.78022 12.8031 4.79004C13.2548 5.15332 13.677 5.52649 14.0796 5.92908C14.8694 6.71887 15.571 7.6175 16.1768 8.55152C17.0539 6.52088 17.247 4.60499 16.3211 3.67908C14.6745 2.03241 9.8967 3.92444 6.91068 6.91046C6.42502 7.39606 5.97342 7.93164 5.55723 8.49109C5.18266 7.87085 4.97489 7.30475 4.88981 7.06836C4.89964 7.05853 4.89964 7.04871 4.90946 7.04871C5.2335 6.65589 5.56736 6.28272 5.92081 5.92926C6.7125 5.13446 7.61435 4.43036 8.55216 3.82355C6.52134 2.94623 4.6052 2.75318 3.67924 3.67914C2.03263 5.32575 3.9246 10.1035 6.91062 13.0895C7.39622 13.5751 7.93174 14.0268 8.49119 14.4429C7.87107 14.8174 7.30491 15.0253 7.06852 15.1104C7.05869 15.1005 7.04887 15.1005 7.04887 15.0907C6.65605 14.7667 6.28288 14.4328 5.92942 14.0794C5.13462 13.2877 4.43052 12.3858 3.82371 11.448C2.94639 13.4788 2.75334 15.395 3.6793 16.3209C5.32591 17.9675 10.1037 16.0756 13.0897 13.0895C13.6198 12.5595 14.108 11.9691 14.5544 11.3533C14.9284 11.9717 15.1448 12.528 15.2298 12.7735C15.2199 12.7833 15.2199 12.7931 15.2101 12.8029C14.8468 13.2546 14.4737 13.6769 14.0711 14.0795C13.2813 14.8693 12.3827 15.5709 11.4486 16.1767C13.4793 17.0538 15.3952 17.2468 16.3211 16.3209C17.9678 14.6743 16.0757 9.89655 13.0897 6.91053H13.0897ZM12.0001 10.0656C12.0001 11.1867 11.1739 12 10.0001 12C8.82644 12 8.00015 11.187 8.00015 10.0656V9.93433C8.00015 8.81324 8.82644 8 10.0001 8C11.1739 8 12.0001 8.81299 12.0001 9.93433V10.0656Z" fill="currentColor"/>
</svg>
