<svg width="20" height="20" viewBox="0 0 20 20" fill="none" xmlns="http://www.w3.org/2000/svg">
<path d="M2.5 9.75391C2.5 5.54858 5.59866 2.5 10 2.5C14.4013 2.5 17.5 5.5498 17.5 9.75391V10.2461C17.5 14.4512 14.4013 17.5 10 17.5C5.59866 17.5 2.5 14.4502 2.5 10.2461V9.75391ZM14.7499 13.3357C15.3136 12.489 15.625 11.4404 15.625 10.2463V9.75366C15.625 6.53662 13.3646 4.375 10 4.375C8.70946 4.375 7.58136 4.69287 6.68097 5.2666L14.7499 13.3357ZM13.3192 14.7332L5.25009 6.66431C4.6864 7.51099 4.375 8.55957 4.375 9.75366V10.2463C4.375 13.4634 6.63544 15.625 10 15.625C11.2906 15.625 12.4187 15.3069 13.3192 14.7332Z" fill="currentColor"/>
</svg>
