<svg width="20" height="20" viewBox="0 0 20 20" fill="none" xmlns="http://www.w3.org/2000/svg">
<path d="M16.46 2H3.53998C3.23999 2 3 2.21997 3 2.5V4.5C3 4.77997 3.23999 5 3.53998 5H4V17C4 17.55 4.45001 18 5 18H15C15.55 18 16 17.55 16 17V5H16.46C16.76 5 17 4.77997 17 4.5V2.5C17 2.21997 16.76 2 16.46 2ZM14 9.75H12.65V11.63C12.92 11.83 13.1 12.14 13.1 12.5C13.1 13.11 12.61 13.6 12 13.6C11.39 13.6 10.9 13.11 10.9 12.5C10.9 12.14 11.08 11.83 11.35 11.63V9.75H6V8.25H14V9.75ZM14 6.75H6V5.25H14V6.75Z" fill="currentColor"/>
</svg>
