<svg width="20" height="20" viewBox="0 0 20 20" fill="none" xmlns="http://www.w3.org/2000/svg">
<path d="M16.3627 3.18216L11.1127 4.68204C10.898 4.74344 10.75 4.93949 10.75 5.16287V13.5C10.75 13.7762 10.5261 14 10.25 14H9.75C9.47388 14 9.25 13.7762 9.25 13.5V5.16287C9.25 4.93948 9.10199 4.74344 8.88733 4.68204L3.63733 3.18216C3.31793 3.09085 3 3.3306 3 3.66287V13.628C3 13.8488 3.14484 14.0435 3.35632 14.107L8 15.5C8 16.3284 8.89545 17 10 17C11.1046 17 12 16.3284 12 15.5L16.6437 14.107C16.8552 14.0435 17 13.8488 17 13.628V3.66287C17 3.33059 16.6821 3.09085 16.3627 3.18216ZM7.25977 10.6314C7.25977 10.8179 7.08503 10.955 6.90394 10.9107L5.04432 10.4549C4.86579 10.4112 4.74024 10.2511 4.74024 10.0673V7.40946C4.74024 7.21219 4.92487 7.06693 5.11652 7.11344L6.95478 7.55924C7.13374 7.60257 7.25977 7.76298 7.25977 7.94706V10.6314ZM15.5784 10.7265L12.4216 11.5V10.2846L15.5784 9.51908V10.7265ZM15.5784 7.72647L12.4216 8.50003V7.28458L15.5784 6.51908V7.72647Z" fill="currentColor"/>
</svg>
