<svg width="32" height="32" viewBox="0 0 32 32" fill="none" xmlns="http://www.w3.org/2000/svg">
<path d="M19.0869 7.99414C16.9547 7.99414 14.9091 8.83553 13.4014 10.334C11.8936 11.8325 11.0469 13.8652 11.0469 15.9844C11.0467 17.0338 11.2543 18.0734 11.6582 19.043C12.0621 20.0124 12.6549 20.8928 13.4014 21.6348C14.1479 22.3769 15.0343 22.9656 16.0098 23.3672C16.9851 23.7687 18.0303 23.9745 19.0859 23.9746V8.00879C21.2182 8.00879 23.2636 8.85043 24.7715 10.3486C26.2794 11.8471 27.1276 13.8798 27.1279 15.999C27.1279 17.0485 26.9197 18.088 26.5156 19.0576C26.1115 20.0271 25.5191 20.9083 24.7725 21.6504C24.0259 22.3924 23.1395 22.9812 22.1641 23.3828C21.1886 23.7844 20.1427 23.9892 19.0869 23.9893V30C17.2372 30 15.4052 29.638 13.6963 28.9346C11.9872 28.231 10.434 27.1994 9.12598 25.8994C6.48423 23.2739 5 19.713 5 16C5 12.287 6.48423 8.7261 9.12598 6.10059C11.7677 3.47508 15.3509 2 19.0869 2V7.99414Z" fill="#00CC66"/>
</svg>
