<svg width="20" height="20" viewBox="0 0 20 20" fill="none" xmlns="http://www.w3.org/2000/svg">
<path d="M13.9203 7.19C12.9004 8.14996 11.5104 8.75 10.0003 8.75C8.49033 8.75 7.10033 8.14996 6.08037 7.19C5.07211 6.25315 4.40619 4.96595 4.27439 3.52741C4.24825 3.24209 4.49097 3 4.77748 3H5.27951C5.544 3 5.7471 3.20765 5.7768 3.47046C5.87147 4.30803 6.21539 5.07528 6.73035 5.70001C7.02039 5.28996 7.39038 4.92998 7.81035 4.65997C8.44035 4.23999 9.19035 4 10.0004 4C10.8104 4 11.5604 4.23999 12.1904 4.65997C12.4203 4.79998 12.6304 4.97998 12.8304 5.16998C12.9903 5.32995 13.1404 5.51001 13.2704 5.70001C13.7853 5.07526 14.1292 4.30801 14.2239 3.47046C14.2536 3.20765 14.4567 3 14.7212 3H15.2232C15.5097 3 15.7524 3.24209 15.7263 3.52741C15.5945 4.96595 14.9286 6.25314 13.9203 7.19Z" fill="currentColor"/>
<path d="M16.4099 11.9203C15.7494 11.2662 14.9121 10.8151 14.0005 10.6024L14.0005 12C14.0005 12.2349 13.9663 12.4607 13.9274 12.6844C15.4159 13.3631 16.4996 14.7808 16.6892 16.4696C16.7213 16.7557 16.4759 17 16.188 17H15.7019C15.4533 17 15.2237 16.8268 15.1915 16.5803C15.0721 15.6679 14.5688 14.8779 13.852 14.3669C13.6285 14.2076 13.3075 14.2329 13.1391 14.4496C12.3353 15.484 11.0468 16.1188 9.61046 15.98C8.49315 15.8725 7.53772 15.2837 6.89055 14.4393C6.72147 14.2187 6.42053 14.1577 6.18995 14.3129C5.43571 14.8206 4.90341 15.6323 4.77854 16.5735C4.74528 16.8242 4.51129 17 4.25841 17H3.78143C3.49349 17 3.24795 16.7555 3.28002 16.4693C3.47131 14.7624 4.57421 13.3299 6.08678 12.66C6.03326 12.3893 6.00048 12.1125 6.00048 11.83V10.594C5.0763 10.8033 4.22753 11.2584 3.55919 11.9205C3.37093 12.107 3.08075 12.1369 2.87668 11.9679L2.48774 11.6457C2.26828 11.4639 2.23583 11.1271 2.43482 10.9231C3.39016 9.94364 4.64518 9.27604 6.00048 9.03998C7.1505 9.81 8.5205 10.25 10.0005 10.25C11.4805 10.25 12.8505 9.81 14.0005 9.03998C15.3495 9.27887 16.587 9.94739 17.5353 10.9232C17.7337 11.1274 17.7013 11.4636 17.482 11.6452L17.0928 11.9677C16.8886 12.1368 16.5983 12.1069 16.4099 11.9203Z" fill="currentColor"/>
</svg>
