<svg width="20" height="20" viewBox="0 0 20 20" fill="none" xmlns="http://www.w3.org/2000/svg">
<path d="M17.7106 16.4103C17.6673 16.1726 17.4602 16 17.2186 16H16.0004V2.5C16.0004 2.22388 15.7765 2 15.5004 2H4.50037C4.22425 2 4.00037 2.22388 4.00037 2.5V16H2.78211C2.54053 16 2.3335 16.1726 2.29017 16.4103L2.10786 17.4103C2.05189 17.7173 2.28773 18 2.5998 18H8.66706V15.1545C8.66706 14.5168 9.18403 14 9.82172 14H10.179C10.8167 14 11.3337 14.5169 11.3337 15.1545V18H17.4009C17.713 18 17.9489 17.7173 17.8929 17.4103L17.7106 16.4103ZM9.00037 11H6.00037V9H9.00037V11ZM9.00037 7H6.00037V5H9.00037V7ZM14.0004 11H11.0004V9H14.0004V11ZM14.0004 7H11.0004V5H14.0004V7Z" fill="currentColor"/>
</svg>
