<svg width="20" height="20" viewBox="0 0 20 20" fill="none" xmlns="http://www.w3.org/2000/svg">
<path d="M17 3.5V5.5C17 5.77612 16.7761 6 16.5 6H3.5C3.22388 6 3 5.77612 3 5.5V3.5C3 3.22382 3.22388 3 3.5 3H5V2.5C5 2.22382 5.22388 2 5.5 2H6.5C6.77612 2 7 2.22382 7 2.5V3H13V2.5C13 2.22382 13.2239 2 13.5 2H14.5C14.7761 2 15 2.22382 15 2.5V3H16.5C16.7761 3 17 3.22382 17 3.5ZM17 8V17.5C17 17.7761 16.7761 18 16.5 18H3.5C3.22388 18 3 17.7761 3 17.5V8C3 7.72382 3.22388 7.5 3.5 7.5H16.5C16.7761 7.5 17 7.72382 17 8ZM8.95917 9.758L9.21149 12.5705C9.23328 12.8133 9.44983 13 9.70972 13H10.2903C10.5502 13 10.7667 12.8133 10.7885 12.5705L11.0408 9.758C11.0654 9.48462 10.8353 9.25 10.5426 9.25H9.4574C9.16474 9.25 8.93463 9.48462 8.95917 9.758ZM10.866 14.3677C10.3877 13.8894 9.61231 13.8894 9.13404 14.3677C8.65583 14.8459 8.65577 15.6213 9.13404 16.0996C9.61231 16.5779 10.3878 16.5778 10.866 16.0996C11.3442 15.6213 11.3442 14.8459 10.866 14.3677Z" fill="currentColor"/>
</svg>
