<svg width="20" height="20" viewBox="0 0 20 20" fill="none" xmlns="http://www.w3.org/2000/svg">
<path d="M12.25 10C12.25 11.2426 11.2426 12.25 10 12.25C8.75736 12.25 7.75 11.2426 7.75 10C7.75 8.75736 8.75736 7.75 10 7.75C11.2426 7.75 12.25 8.75736 12.25 10Z" fill="currentColor"/>
<path fill-rule="evenodd" clip-rule="evenodd" d="M13.9315 5.06006L17.6125 5.91046C17.8394 5.96289 18 6.16485 18 6.39764V15.5C18 15.7761 17.7761 16 17.5 16H2.5C2.22388 16 2 15.7761 2 15.5V6.39764C2 6.16485 2.16064 5.96289 2.38745 5.91046L6.06848 5.06006C6.23102 5.02252 6.36407 4.90637 6.42334 4.75043L7.34546 2.32245C7.41919 2.12836 7.60523 2 7.81293 2H12.1871C12.3948 2 12.5808 2.12836 12.6545 2.32245L13.5767 4.75043C13.6359 4.90637 13.769 5.02252 13.9315 5.06006ZM6.25 10C6.25 12.0679 7.93213 13.75 10 13.75C12.0679 13.75 13.75 12.0679 13.75 10C13.75 7.93213 12.0679 6.25 10 6.25C7.93213 6.25 6.25 7.93213 6.25 10Z" fill="currentColor"/>
</svg>
