<svg width="20" height="20" viewBox="0 0 20 20" fill="none" xmlns="http://www.w3.org/2000/svg">
<path d="M17.0102 9.20227H17.5102C17.7864 9.20227 18.0102 8.97839 18.0102 8.70227V7.75C18.0102 7.47382 17.7864 7.25 17.5102 7.25H16.5002C16.4885 7.25 16.4787 7.25586 16.4672 7.25665L15.0164 4.35547C14.6776 3.67796 13.9851 3.25 13.2276 3.25H6.77283C6.01534 3.25 5.32285 3.67796 4.98406 4.35547L3.53332 7.25665C3.52178 7.25586 3.51196 7.25 3.50024 7.25H2.49023C2.21411 7.25 1.99023 7.47382 1.99023 7.75V8.70227C1.99023 8.97839 2.21411 9.20227 2.49023 9.20227H2.99023V16.5C2.99023 16.7761 3.21409 17 3.49023 17H4.50023C4.77637 17 5.00023 16.7761 5.00023 16.5V15.5C5.00023 15.2239 5.22409 15 5.50023 15H14.5002C14.7764 15 15.0002 15.2238 15.0002 15.5V16.5C15.0002 16.7761 15.2241 17 15.5002 17H16.5102C16.7864 17 17.0102 16.7761 17.0102 16.5V9.20227ZM6.99023 12H5.99023C5.43792 12 4.99023 11.5522 4.99023 11C4.99023 10.4477 5.43792 10 5.99023 10H6.99023C7.54254 10 7.99023 10.4477 7.99023 11C7.99023 11.5522 7.54254 12 6.99023 12ZM5.7744 8C5.52513 8 5.36296 7.73761 5.47441 7.51459L6.63859 5.18543C6.69541 5.07178 6.81156 5.00001 6.93864 5.00001H13.0618C13.1889 5.00001 13.305 5.07179 13.3619 5.18543L14.526 7.51459C14.6375 7.73761 14.4753 8 14.2261 8H5.7744ZM14.0102 12H13.0102C12.4579 12 12.0102 11.5522 12.0102 11C12.0102 10.4477 12.4579 10 13.0102 10H14.0102C14.5625 10 15.0102 10.4477 15.0102 11C15.0102 11.5522 14.5625 12 14.0102 12Z" fill="currentColor"/>
</svg>
