<svg width="20" height="20" viewBox="0 0 20 20" fill="none" xmlns="http://www.w3.org/2000/svg">
<path d="M16.2259 7.42138C15.8525 6.52075 16.3356 5.02184 15.6569 4.34326C14.9782 3.66455 13.4792 4.14746 12.5786 3.77417C11.7098 3.41382 10.9991 2 10 2C9.00092 2 8.29022 3.41382 7.42145 3.77405C6.52088 4.14746 5.02191 3.66443 4.3432 4.34302C3.66449 5.02173 4.14758 6.52075 3.77411 7.42139C3.41382 8.29016 2 9.00098 2 10C2 10.999 3.41382 11.7097 3.77411 12.5786C4.14752 13.4791 3.66443 14.978 4.34308 15.6567C5.02179 16.3354 6.52081 15.8524 7.42139 16.2258C8.29016 16.5862 9.00092 18 10 18C10.9991 18 11.7098 16.5862 12.5786 16.2258C13.4791 15.8525 14.9781 16.3356 15.6568 15.657C16.3355 14.9783 15.8524 13.4792 16.2259 12.5786C16.5862 11.7097 18 10.999 18 9.99999C18 9.00097 16.5862 8.29015 16.2259 7.42138ZM13.8353 7.99743L8.99665 12.8361C8.77814 13.0547 8.42377 13.0547 8.20527 12.8361L6.16474 10.7955C5.94617 10.5769 5.94617 10.2226 6.16474 10.0041L6.56031 9.60851C6.77882 9.39 7.13319 9.39 7.35169 9.60851L8.60096 10.8578L12.6483 6.81042C12.8668 6.59191 13.2212 6.59191 13.4397 6.81042L13.8353 7.20605C14.0538 7.42456 14.0538 7.77893 13.8353 7.99743Z" fill="currentColor"/>
</svg>
