<svg width="20" height="20" viewBox="0 0 20 20" fill="none" xmlns="http://www.w3.org/2000/svg">
<path d="M17.5 3H15.5C15.2239 3 15 3.22386 15 3.5V13.5C15 13.7761 14.7761 14 14.5 14H13.5C13.2239 14 13 13.7761 13 13.5V3.5C13 3.22386 12.7761 3 12.5 3H2.5C2.22386 3 2 3.22386 2 3.5V16.5C2 16.7761 2.22386 17 2.5 17H17.5C17.7761 17 18 16.7761 18 16.5V3.5C18 3.22386 17.7761 3 17.5 3ZM7 13.5256C7 13.7876 6.78766 14 6.52563 14H5.47436C5.21234 14 4.99999 13.7876 4.99999 13.5256V11.4743C4.99999 11.2123 5.21233 11 5.47436 11H6.52563C6.78765 11 7 11.2123 7 11.4743V13.5256ZM11 13.5C11 13.7761 10.7761 14 10.5 14H9.5C9.22388 14 9 13.7761 9 13.5V8.5C9 8.22382 9.22388 8 9.5 8H10.5C10.7761 8 11 8.22382 11 8.5V13.5Z" fill="currentColor"/>
</svg>
