<svg width="20" height="20" viewBox="0 0 20 20" fill="none" xmlns="http://www.w3.org/2000/svg">
<path d="M7.61519 16.4393L4.14641 12.9697C3.95119 12.7744 3.9512 12.4579 4.14645 12.2626L4.84126 11.5678C5.03655 11.3725 5.35318 11.3726 5.54843 11.5679L7.96874 13.989L15.4333 6.52493C15.6286 6.32968 15.9451 6.32968 16.1404 6.52494L16.8352 7.21977C17.0305 7.41504 17.0305 7.73163 16.8352 7.92689L8.32233 16.4393C8.12705 16.6346 7.81044 16.6346 7.61519 16.4393ZM8.33877 10.8127L14.6035 4.5484C14.7988 4.35314 14.7988 4.03655 14.6035 3.84128L13.9087 3.14645C13.7135 2.95119 13.3969 2.95119 13.2016 3.14643L7.98519 8.36241L6.37235 6.74918C6.17709 6.55388 5.86048 6.55386 5.6652 6.74914L4.97039 7.44395C4.77514 7.6392 4.77513 7.95577 4.97036 8.15103L7.63164 10.8127C7.82689 11.008 8.1435 11.008 8.33877 10.8127Z" fill="currentColor"/>
</svg>
