<svg width="20" height="20" viewBox="0 0 20 20" fill="none" xmlns="http://www.w3.org/2000/svg">
<path fill-rule="evenodd" clip-rule="evenodd" d="M5.81711 10.6453L4.54743 10.0809C4.3706 10.0023 4.22038 9.87408 4.11498 9.71178C4.00959 9.54948 3.95356 9.36008 3.95368 9.16656L3.95368 5.3125C3.95343 5.21392 3.97263 5.11626 4.01017 5.0251C4.0477 4.93394 4.10284 4.85108 4.17243 4.78125L4.6568 4.40625L4.00961 3.61188C3.97278 3.53835 3.95363 3.45724 3.95368 3.375C3.95368 3.27554 3.99319 3.18016 4.06351 3.10983C4.13384 3.03951 4.22922 3 4.32868 3H8.9518C12.2643 3 14.9493 6.76031 14.9493 10.0728V14.5H4.95368C4.95368 13.3997 5.26707 12.8444 6.33461 12.31L8.12274 11.4147C8.37191 11.2901 8.58146 11.0985 8.72789 10.8615C8.87432 10.6245 8.95186 10.3514 8.9518 10.0728L8.9518 8.06625L8.26055 8.4125C8.16377 8.4609 8.07861 8.52967 8.01091 8.61409C7.94321 8.69851 7.89458 8.79658 7.86836 8.90156L7.58024 9.85938C7.53696 10.0034 7.46178 10.1357 7.36028 10.2466C7.25878 10.3576 7.13358 10.4442 6.99399 10.5L6.59461 10.66C6.4706 10.7096 6.33791 10.7339 6.20438 10.7313C6.07084 10.7288 5.93916 10.6996 5.81711 10.6453ZM6.20367 7C6.61789 7 6.95367 6.66421 6.95367 6.25C6.95367 5.83579 6.61789 5.5 6.20367 5.5C5.78946 5.5 5.45367 5.83579 5.45367 6.25C5.45367 6.66421 5.78946 7 6.20367 7Z" fill="currentColor"/>
<path d="M3.95368 18L3.95367 16H15.9537L15.9537 18H3.95368Z" fill="currentColor"/>
</svg>
