<svg width="20" height="20" viewBox="0 0 20 20" fill="none" xmlns="http://www.w3.org/2000/svg">
<path d="M16.9999 4.42308V8.5C16.9999 8.775 16.7749 9 16.4999 9H10.9614C10.6853 9 10.4614 8.77614 10.4614 8.5V3.5C10.4614 3.225 10.6864 3 10.9614 3H12.6277C12.7276 3 12.8163 3.06321 12.848 3.15691L13.0535 3.76612C13.0851 3.85987 13.1738 3.92308 13.2738 3.92308H16.4999C16.7749 3.92308 16.9999 4.14808 16.9999 4.42308Z" fill="currentColor"/>
<path d="M16.4999 11.9231H13.2738C13.1738 11.9231 13.0851 11.8599 13.0535 11.7661L12.848 11.1569C12.8163 11.0632 12.7276 11 12.6277 11H10.9614C10.6864 11 10.4614 11.225 10.4614 11.5V16.5C10.4614 16.7761 10.6853 17 10.9614 17H16.4999C16.7749 17 16.9999 16.775 16.9999 16.5V12.4231C16.9999 12.1469 16.776 11.9231 16.4999 11.9231Z" fill="currentColor"/>
<path d="M3.25 13C3.25 13.9648 4.03516 14.75 5 14.75L8.51514 14.75C8.65284 14.75 8.76514 14.6377 8.76514 14.5V13.5C8.76514 13.3623 8.65284 13.25 8.51514 13.25H4.75V7.75001H8.50001C8.63771 7.75001 8.75001 7.63771 8.75001 7.50001V6.50001C8.75001 6.36231 8.63771 6.25001 8.50001 6.25001H4.73487V3.50001C4.73487 3.36231 4.62257 3.25001 4.48487 3.25001H3.48633C3.41943 3.25001 3.35644 3.27637 3.30908 3.32325C3.26221 3.3711 3.23633 3.4336 3.23633 3.50098L3.25 8V13Z" fill="currentColor"/>
</svg>
