<svg width="20" height="20" viewBox="0 0 20 20" fill="none" xmlns="http://www.w3.org/2000/svg">
<path d="M19 9.49876C19 9.22262 18.7761 9 18.5 9L15 9V2.5C15 2.22386 14.7761 2 14.5 2H9.5C9.22386 2 9 2.22386 9 2.5V5.5H8H6.5H4.5H3C2.67569 5.5 2.29606 5.5 1.99986 5.5C1.72372 5.5 1.5 5.72386 1.5 6V17.5C1.5 17.7761 1.72386 18 2 18H18.5C18.7761 18 19 17.7767 19 17.5005C19 15.7516 19 11.0438 19 9.49876ZM5.5 16H3.5V14H5.5V16ZM5.5 12.5H3.5V10.5H5.5V12.5ZM5.5 9H3.5V7H5.5V9ZM9 16H7V14H9V16ZM9 12.5H7V10.5H9V12.5ZM9 9H7V7H9V9ZM13 12.5H11V10.5H13V12.5ZM13 9H11V7H13V9ZM13 5.5H11V3.5H13V5.5ZM17 16H15V14H17V16ZM17 12.5H15V10.5H17V12.5Z" fill="currentColor"/>
</svg>
