<svg width="20" height="20" viewBox="0 0 20 20" fill="none" xmlns="http://www.w3.org/2000/svg">
<path d="M16.5754 6.0896L16.1399 5.49365L8.79223 13.0734C8.61852 13.2579 8.32507 13.2572 8.15215 13.072L4.78569 9.58722C4.62041 9.41016 4.62993 9.13263 4.80693 8.96729L5.44835 8.36835C5.62547 8.20294 5.90312 8.21247 6.06847 8.38965L8.47747 10.8487L14.965 4.18231C13.6784 3.1239 11.9752 2.5 10 2.5C5.59863 2.5 2.5 5.54865 2.5 9.75385V10.2461C2.5 14.4502 5.59863 17.5 10 17.5C14.4014 17.5 17.5 14.4513 17.5 10.2461V9.75385C17.5 8.38776 17.1682 7.14686 16.5754 6.0896Z" fill="#29A393"/>
</svg>
