<svg width="20" height="20" viewBox="0 0 20 20" fill="none" xmlns="http://www.w3.org/2000/svg">
<path d="M15.86 9.26001C15.94 8.89996 16 8.52997 16 8.14996C16 5.54531 13.8072 3.42099 11.1862 3.25982C11.0137 3.24921 10.8669 3.39586 10.8676 3.56865L10.89 9.05999H12.6C12.98 9.05999 13.18 9.46996 12.9 9.7L10.31 11.89C10.14 12.04 9.85999 12.04 9.69 11.89L7.09997 9.7C6.82 9.46996 7.02001 9.05999 7.40997 9.05999H9.10998L9.10996 4.08675C9.10996 3.86837 8.87928 3.71352 8.68481 3.81288C7.369 4.48518 6.39865 5.71382 6.09997 7.17998C6.07 7.17998 6.03002 7.16997 5.99999 7.16997C3.78998 7.16998 2 8.91998 2 11.08C2 13.25 3.78998 15 6 15H15C16.66 15 18 13.68 18 12.06C18 10.73 17.09 9.62 15.86 9.26001Z" fill="currentColor"/>
</svg>
