<svg width="20" height="20" viewBox="0 0 20 20" fill="none" xmlns="http://www.w3.org/2000/svg">
<path fill-rule="evenodd" clip-rule="evenodd" d="M10.9013 7.70001C10.8902 7.79998 10.9124 7.88888 10.9791 7.96667L11.6902 8.72222C11.7902 8.82225 11.8013 8.97776 11.7347 9.10003L11.2902 9.9C11.2235 10.0222 11.0791 10.0889 10.9569 10.0556L10.0346 9.81109C9.93466 9.77779 9.84576 9.81109 9.76797 9.87775C9.42352 10.1778 9.01242 10.4111 8.54577 10.5666C8.44574 10.6 8.37908 10.6667 8.34571 10.7777L8.07905 11.7666C8.03463 11.9111 7.92355 12 7.79015 12H6.8791C6.7457 12 6.63462 11.9111 6.5902 11.7666L6.32354 10.7777C6.29017 10.6667 6.22351 10.6 6.12348 10.5666C5.65683 10.4111 5.24572 10.1778 4.90128 9.87775C4.82349 9.81109 4.73458 9.77779 4.63462 9.81109L3.71238 10.0556C3.59017 10.0889 3.44572 10.0222 3.37906 9.9L2.93459 9.10003C2.86793 8.97775 2.87905 8.82225 2.97908 8.72222L3.69014 7.96667C3.75688 7.88888 3.77905 7.79997 3.76793 7.70001C3.74575 7.51107 3.73463 7.3222 3.73463 7.12221V6.8778C3.73463 6.67774 3.74575 6.48887 3.76793 6.3C3.77905 6.19997 3.75687 6.11113 3.69014 6.03334L2.97908 5.27779C2.87905 5.17776 2.86793 5.02219 2.93459 4.89998L3.37906 4.10001C3.44572 3.97774 3.59017 3.91107 3.71238 3.94444L4.63462 4.18885C4.73459 4.22222 4.82349 4.18885 4.90128 4.12219C5.24573 3.82224 5.65683 3.58888 6.12348 3.43331C6.22351 3.40002 6.29017 3.33335 6.32354 3.2222L6.5902 2.23329C6.63462 2.08884 6.7457 2 6.8791 2H7.79015C7.92355 2 8.03463 2.08884 8.07905 2.23329L8.34571 3.2222C8.37908 3.33335 8.44574 3.40001 8.54577 3.43331C9.01242 3.58888 9.42353 3.82224 9.76797 4.12219C9.84576 4.18885 9.93467 4.22222 10.0346 4.18885L10.9569 3.94444C11.0791 3.91107 11.2235 3.97774 11.2902 4.10001L11.7347 4.89998C11.8013 5.02219 11.7902 5.17776 11.6902 5.27779L10.9791 6.03334C10.9124 6.11113 10.8902 6.19997 10.9013 6.3C10.9235 6.48887 10.9346 6.67774 10.9346 6.8778V7.12221C10.9346 7.3222 10.9235 7.51107 10.9013 7.70001ZM7.33464 8.73334C8.31242 8.73334 8.99018 8.02221 8.99018 7.05555V6.94447C8.99018 5.97774 8.31242 5.26668 7.33464 5.26668C6.35686 5.26668 5.6791 5.97774 5.6791 6.94447V7.05555C5.6791 8.02221 6.35686 8.73334 7.33464 8.73334Z" fill="currentColor"/>
<path fill-rule="evenodd" clip-rule="evenodd" d="M17.1445 13.8364C17.1427 13.927 17.1698 14.0048 17.236 14.0691L17.9349 14.6883C18.0328 14.7698 18.0554 14.9083 18.0056 15.0233L17.6725 15.7766C17.6227 15.8915 17.4987 15.9631 17.3865 15.9432L16.5399 15.7993C16.4476 15.7776 16.3706 15.8147 16.3064 15.8808C16.0221 16.1778 15.6727 16.4205 15.2671 16.5979C15.1802 16.636 15.1259 16.7012 15.105 16.8035L14.9467 17.7116C14.9187 17.8447 14.8263 17.9334 14.7068 17.9443L13.8902 18.0186C13.7706 18.0295 13.6638 17.9589 13.6122 17.833L13.2926 16.9685C13.2536 16.8716 13.1884 16.8173 13.096 16.7956C12.6651 16.6942 12.2776 16.5186 11.9444 16.2778C11.8692 16.2244 11.7868 16.2018 11.6999 16.2398L10.8933 16.5342C10.7865 16.574 10.6515 16.526 10.5818 16.4219L10.1182 15.7412C10.0485 15.637 10.0457 15.4967 10.1272 15.3989L10.7029 14.6637C10.7564 14.5885 10.769 14.507 10.7509 14.4184C10.7156 14.2508 10.6902 14.0825 10.6739 13.9032L10.654 13.6841C10.6376 13.5048 10.6322 13.3346 10.6367 13.1635C10.6385 13.073 10.6114 12.9952 10.5452 12.9309L9.84625 12.3117C9.74843 12.2302 9.72577 12.0917 9.77555 11.9767L10.1087 11.2234C10.1584 11.1084 10.2825 11.0368 10.3947 11.0568L11.2413 11.2006C11.3336 11.2224 11.4105 11.1852 11.4748 11.1191C11.7591 10.8222 12.1085 10.5795 12.5141 10.402C12.601 10.364 12.6553 10.2988 12.6762 10.1964L12.8345 9.28832C12.8625 9.15522 12.9548 9.06653 13.0744 9.05565L13.891 8.98133C14.0105 8.97045 14.1173 9.04101 14.1689 9.16686L14.4886 10.0315C14.5276 10.1284 14.5928 10.1827 14.6852 10.2044C15.1161 10.3057 15.5036 10.4814 15.8368 10.7221C15.912 10.7755 15.9944 10.7982 16.0813 10.7601L16.8879 10.4658C16.9947 10.4259 17.1296 10.4739 17.1994 10.578L17.663 11.2588C17.7327 11.3629 17.7354 11.5032 17.6539 11.6011L17.0783 12.3363C17.0248 12.4114 17.0122 12.4929 17.0303 12.5816C17.0656 12.7491 17.091 12.9175 17.1073 13.0968L17.1272 13.3158C17.1435 13.4951 17.149 13.6653 17.1445 13.8364ZM14.032 15.0536C14.9084 14.9738 15.4578 14.2811 15.379 13.4147L15.3699 13.3152C15.291 12.4487 14.6256 11.8667 13.7492 11.9464C12.8728 12.0262 12.3233 12.7188 12.4022 13.5853L12.4113 13.6849C12.4901 14.5513 13.1556 15.1333 14.032 15.0536Z" fill="currentColor"/>
</svg>
