<svg width="20" height="20" viewBox="0 0 20 20" fill="none" xmlns="http://www.w3.org/2000/svg">
<path d="M7.5 8H3.5C3.22386 8 3 7.77614 3 7.5V6.5C3 6.22386 3.22386 6 3.5 6H6V3.5C6 3.22386 6.22386 3 6.5 3H7.5C7.77614 3 8 3.22386 8 3.5V7.5C8 7.77614 7.77614 8 7.5 8ZM17 7.5V6.5C17 6.22386 16.7761 6 16.5 6H14V3.5C14 3.22386 13.7761 3 13.5 3H12.5C12.2239 3 12 3.22386 12 3.5V7.5C12 7.77614 12.2239 8 12.5 8H16.5C16.7761 8 17 7.77614 17 7.5ZM14 16.5V14H16.5C16.7761 14 17 13.7761 17 13.5V12.5C17 12.2239 16.7761 12 16.5 12H12.5C12.2239 12 12 12.2239 12 12.5V16.5C12 16.7761 12.2239 17 12.5 17H13.5C13.7761 17 14 16.7761 14 16.5ZM8 16.5V12.5C8 12.2239 7.77614 12 7.5 12H3.5C3.22386 12 3 12.2239 3 12.5V13.5C3 13.7761 3.22386 14 3.5 14H6V16.5C6 16.7761 6.22386 17 6.5 17H7.5C7.77614 17 8 16.7761 8 16.5Z" fill="currentColor"/>
</svg>
