<svg width="20" height="20" viewBox="0 0 20 20" fill="none" xmlns="http://www.w3.org/2000/svg">
<path d="M13.5 3C13.78 3 14 3.21997 14 3.5V5.5H6.5C5.95001 5.5 5.5 5.94995 5.5 6.5V14H3.5C3.21997 14 3 13.78 3 13.5V3.5C3 3.21997 3.21997 3 3.5 3H13.5Z" fill="currentColor"/>
<path fill-rule="evenodd" clip-rule="evenodd" d="M7.5 7H17.5C17.7761 7 18 7.22388 18 7.5V13.48C18 14.3049 17.325 14.98 16.5 14.98H15.51C15.2295 14.98 15 15.2095 15 15.49V16.5C15 17.325 14.325 18 13.5 18H7.5C7.22388 18 7 17.7761 7 17.5V7.5C7 7.22388 7.22388 7 7.5 7ZM11.9658 13.75C12.2419 13.75 12.4658 13.5261 12.4658 13.25V12.75C12.4658 12.4739 12.2419 12.25 11.9658 12.25H10.0342C9.75806 12.25 9.53418 12.4739 9.53418 12.75V13.25C9.53418 13.5261 9.75806 13.75 10.0342 13.75H11.9658ZM14.9658 10.75C15.2419 10.75 15.4658 10.5261 15.4658 10.25V9.75C15.4658 9.47388 15.2419 9.25 14.9658 9.25H10.0342C9.75806 9.25 9.53418 9.47388 9.53418 9.75V10.25C9.53418 10.5261 9.75806 10.75 10.0342 10.75H14.9658Z" fill="currentColor"/>
</svg>
