<svg width="20" height="20" viewBox="0 0 20 20" fill="none" xmlns="http://www.w3.org/2000/svg">
<path d="M3.49108 5.6247C3.68827 4.84272 4.3167 4.19937 5.09175 3.97651C5.90719 3.74204 6.66247 3.95214 7.21975 4.3999C7.42977 3.04004 8.58981 2 9.99978 2C11.4097 2 12.5698 3.04004 12.7798 4.3999C13.1798 4.08008 13.6798 3.87988 14.2298 3.87988C15.6098 3.87988 16.7197 5.07007 16.5798 6.47998C16.4498 7.69995 15.3298 8.58984 14.0998 8.58984H12.7798C12.2036 8.58984 11.651 8.81873 11.2436 9.22617L11.1162 9.35355C11.0224 9.44732 10.8952 9.5 10.7626 9.5H9.23692C9.10431 9.5 8.97713 9.44732 8.88337 9.35355L8.74979 9.21997C8.34633 8.81651 7.79911 8.58984 7.22853 8.58984H5.76981C4.26815 8.58984 3.09716 7.18684 3.49108 5.6247ZM14.6498 15.4299C13.7698 15.22 13.1097 14.8901 12.6097 14.5C12.0497 14.0601 11.6998 13.54 11.4697 13H13.4998C13.7798 13 13.9998 12.78 13.9998 12.5V11.5C13.9998 11.22 13.7798 11 13.4998 11H6.49977C6.21974 11 5.99977 11.22 5.99977 11.5V12.5C5.99977 12.78 6.21974 13 6.49977 13H8.5298C8.29976 13.54 7.94978 14.0601 7.38979 14.5C6.88979 14.8901 6.22976 15.22 5.34975 15.4299C4.38979 15.6599 3.67977 16.4499 3.46975 17.3901C3.40975 17.6799 3.63979 17.96 3.93978 17.96H16.0598C16.3598 17.96 16.5898 17.6799 16.5298 17.3901C16.3198 16.4499 15.6097 15.6599 14.6498 15.4299Z" fill="currentColor"/>
</svg>
