<svg width="20" height="20" viewBox="0 0 20 20" fill="none" xmlns="http://www.w3.org/2000/svg">
<path fill-rule="evenodd" clip-rule="evenodd" d="M16.4193 4.85984C17.0593 4.85984 17.6893 5.25999 17.9993 5.95994L9.23925 13.373C9.39867 13.9824 9.37456 14.6465 9.14092 15.2822C8.83037 16.126 8.20244 16.8535 7.37432 17.332C6.73857 17.6992 6.03545 17.8896 5.34209 17.8896C5.13213 17.8896 4.92216 17.8721 4.71611 17.8369C3.77568 17.6748 2.98174 17.1387 2.53545 16.3662C2.09014 15.5937 2.02276 14.6377 2.35186 13.7432C2.6624 12.8984 3.28936 12.1709 4.11748 11.6924C4.94658 11.2129 5.88896 11.0381 6.77666 11.1875C7.05266 11.2351 7.31029 11.3237 7.55614 11.4326L8.81932 10.4399L7.59929 9.47997L7.59807 9.47899C7.3513 9.58763 7.09258 9.67601 6.81572 9.72362C6.60771 9.75975 6.39579 9.77733 6.18388 9.77733C5.48466 9.77733 4.7747 9.58495 4.1331 9.21483C3.29716 8.7324 2.66337 7.99705 2.35087 7.14549C2.01884 6.24314 2.08623 5.27829 2.53545 4.49997C2.98467 3.72165 3.78545 3.18064 4.73369 3.01755C5.63115 2.86423 6.58134 3.04489 7.41728 3.52634C8.94999 4.41135 9.68699 6.09299 9.29551 7.54392L9.65928 7.85007L10.8293 8.83982L15.4193 5.21995C15.7293 4.97996 16.0793 4.85984 16.4193 4.85984ZM5.1331 7.4824C5.55888 7.7285 6.04716 7.83006 6.47587 7.75291C6.68778 7.71678 7.0745 7.60155 7.28251 7.2412C7.63115 6.63866 7.23466 5.73046 6.41728 5.25878C6.08427 5.0664 5.7122 4.96386 5.36064 4.96386C5.26298 4.96386 5.16728 4.97167 5.07353 4.98827C4.86162 5.0244 4.4749 5.13963 4.26787 5.49901C4.05986 5.86033 4.15361 6.25291 4.22783 6.45506C4.37724 6.86228 4.70732 7.23728 5.1331 7.4824ZM6.37431 15.5996C6.79228 15.3584 7.1165 14.9912 7.26298 14.5908C7.33622 14.3935 7.42801 14.0098 7.22489 13.6582C7.02274 13.3066 6.64384 13.1943 6.43583 13.1582C6.34501 13.1426 6.25028 13.1348 6.15458 13.1348C5.80985 13.1348 5.44462 13.2353 5.11747 13.4248C4.6995 13.666 4.37626 14.0332 4.2288 14.4326C4.15653 14.6308 4.06474 15.0146 4.26786 15.3662C4.47001 15.7178 4.84892 15.8301 5.05595 15.8662C5.47978 15.9404 5.95634 15.8428 6.37431 15.5996Z" fill="currentColor"/>
<path d="M16.4196 16C17.0596 16 17.6896 15.6001 17.9996 14.8999L13.8796 11.4199L12.0396 12.98L15.4196 15.6499C15.7296 15.8901 16.0696 16 16.4196 16Z" fill="currentColor"/>
</svg>
