<svg width="20" height="20" viewBox="0 0 20 20" fill="none" xmlns="http://www.w3.org/2000/svg">
<path d="M9.45893 5.99997C9.45893 7.91003 7.91052 9.45844 6.00046 9.45844C4.0904 9.45844 2.54199 7.91003 2.54199 5.99997C2.54199 4.08991 4.0904 2.5415 6.00046 2.5415C7.91052 2.5415 9.45893 4.08991 9.45893 5.99997ZM17.0005 8.49997V3.49997C17.0005 3.22383 16.7766 2.99997 16.5005 2.99997H11.5005C11.2243 2.99997 11.0005 3.22383 11.0005 3.49997V8.49997C11.0005 8.77611 11.2243 8.99997 11.5005 8.99997H16.5005C16.7766 8.99997 17.0005 8.77611 17.0005 8.49997ZM14.0005 10.5415C12.0904 10.5415 10.542 12.0899 10.542 14C10.542 15.91 12.0904 17.4584 14.0005 17.4584C15.9105 17.4584 17.4589 15.91 17.4589 14C17.4589 12.0899 15.9105 10.5415 14.0005 10.5415ZM9.00046 16.5V11.5C9.00046 11.2238 8.7766 11 8.50046 11H3.50046C3.22432 11 3.00046 11.2238 3.00046 11.5V16.5C3.00046 16.7761 3.22432 17 3.50046 17H8.50046C8.7766 17 9.00046 16.7761 9.00046 16.5Z" fill="currentColor"/>
</svg>
