<svg width="20" height="20" viewBox="0 0 20 20" fill="none" xmlns="http://www.w3.org/2000/svg">
<path d="M17.5894 10.7745C17.4201 9.20413 16.7486 7.76563 15.7451 6.62098C15.5339 6.38012 15.1464 6.41952 14.9703 6.68708C13.6239 8.73269 11.4325 12.0208 10.9562 12.4859C10.2577 13.1681 9.13855 13.1547 8.45649 12.4563C7.77436 11.7578 7.78767 10.6386 8.48609 9.95657C8.95403 9.49963 12.1828 7.45388 14.2655 6.1518C14.5731 5.95947 14.5708 5.51855 14.271 5.31417C13.2939 4.64799 12.1601 4.2018 10.944 4.05654C6.29901 3.50173 2.36328 7.10378 2.36328 11.6364C2.36328 13.0664 2.75173 14.4037 3.43952 15.5439C3.61505 15.8349 3.94301 16 4.28285 16C6.34446 16 13.6543 16 15.7163 16C16.0566 16 16.3846 15.8346 16.5603 15.5432C17.3843 14.1766 17.7784 12.5274 17.5894 10.7745Z" fill="currentColor"/>
</svg>
