<svg width="20" height="20" viewBox="0 0 20 20" fill="none" xmlns="http://www.w3.org/2000/svg">
<path d="M3 4.5C3 3.11914 6.13403 2 10 2C13.866 2 17 3.11914 17 4.5V6.5C17 7.88062 13.866 9 10 9C6.13403 9 3 7.88062 3 6.5V4.5Z" fill="currentColor"/>
<path d="M3 8.65991V10C3 11.6599 6.13 13 10 13C13.87 13 17 11.6599 17 10V8.65991C15.39 9.87012 12.68 10.5 10 10.5C7.32001 10.5 4.60999 9.87012 3 8.65991Z" fill="currentColor"/>
<path d="M3 12.6599V14C3 15.6599 6.13 17 10 17C13.87 17 17 15.6599 17 14V12.6599C15.39 13.8701 12.68 14.5 10 14.5C7.32001 14.5 4.60999 13.8701 3 12.6599Z" fill="currentColor"/>
</svg>
