<svg width="20" height="20" viewBox="0 0 20 20" fill="none" xmlns="http://www.w3.org/2000/svg">
<path d="M9.99986 5.32127L5.32835 9.99278L9.99986 14.6643L11.5071 13.157C11.7024 12.9618 12.019 12.9618 12.2142 13.157L12.9214 13.8641C13.1166 14.0594 13.1166 14.376 12.9214 14.5712L10.3534 17.1392C10.1582 17.3344 9.84157 17.3344 9.64631 17.1392L2.85348 10.3463C2.65822 10.1511 2.65822 9.83449 2.85348 9.63923L9.64631 2.8464C9.84157 2.65114 10.1582 2.65114 10.3534 2.8464L12.8712 5.36414C13.0664 5.55941 13.0664 5.87599 12.8712 6.07125L12.1641 6.77836C11.9688 6.97362 11.6522 6.97362 11.4569 6.77836L9.99986 5.32127Z" fill="currentColor"/>
<path d="M10.5 9.61028C10.5 9.33414 10.7238 9.11028 11 9.11028H13.9292L13.9292 7.43355C13.9292 7.04524 14.4152 6.84223 14.7086 7.12463L17.3676 9.68393C17.5441 9.85382 17.5441 10.1318 17.3676 10.3017L14.7086 12.8609C14.4152 13.1434 13.9292 12.9404 13.9292 12.5521V10.8753L11 10.8753C10.7238 10.8753 10.5 10.6514 10.5 10.3753V9.61028Z" fill="currentColor"/>
</svg>
