<svg width="20" height="20" viewBox="0 0 20 20" fill="none" xmlns="http://www.w3.org/2000/svg">
<path d="M16 2.5V14.5C16 14.7761 15.7761 15 15.5 15H12.5V4.38177C12.5 4.19238 12.393 4.01922 12.2236 3.93457L8.35449 2H15.5C15.7761 2 16 2.22382 16 2.5ZM11 5.30902V17.191C11 17.5627 10.6088 17.8044 10.2764 17.6382L5.27637 15.1382C5.107 15.0535 5 14.8804 5 14.691V2.80902C5 2.43732 5.39117 2.19556 5.72363 2.36182L10.7236 4.86182C10.893 4.94648 11 5.11963 11 5.30902ZM9.75 9.37646C9.75 8.9624 9.41406 8.62646 9 8.62646C8.58594 8.62646 8.25 8.9624 8.25 9.37646V11.6235C8.25 12.0376 8.58594 12.3735 9 12.3735C9.41406 12.3735 9.75 12.0376 9.75 11.6235V9.37646Z" fill="currentColor"/>
</svg>
