<svg width="20" height="20" viewBox="0 0 20 20" fill="none" xmlns="http://www.w3.org/2000/svg">
<path d="M10.9999 3.14303L10.9999 9.2363H12.8979C13.3433 9.2363 13.5664 9.7748 13.2515 10.0898L10.3535 12.9878C10.1582 13.183 9.84167 13.183 9.64641 12.9878L6.74849 10.0898C6.43351 9.77486 6.65659 9.2363 7.10204 9.2363H8.99999V3.14312C8.99999 2.83683 8.72348 2.59023 8.42205 2.64456C4.87742 3.28353 2.5 6.07355 2.5 9.75382V10.2461C2.5 14.4513 5.59869 17.5 10 17.5C14.4013 17.5 17.5 14.4502 17.5 10.2461V9.75382C17.5 6.07255 15.1225 3.28325 11.5778 2.6445C11.2764 2.59019 10.9999 2.83677 10.9999 3.14303Z" fill="currentColor"/>
</svg>
