<svg width="20" height="20" viewBox="0 0 20 20" fill="none" xmlns="http://www.w3.org/2000/svg">
<path d="M11.4998 16.7499H10.4998C10.2237 16.7499 9.99984 16.5261 9.99984 16.2499V15.7499C9.99984 15.4738 10.2237 15.2499 10.4998 15.2499H11.4998C11.776 15.2499 11.9998 15.4738 11.9998 15.7499V16.2499C11.9998 16.5261 11.776 16.7499 11.4998 16.7499ZM14.9998 16.2499V15.7499C14.9998 15.4738 14.776 15.2499 14.4998 15.2499H13.4998C13.2237 15.2499 12.9998 15.4738 12.9998 15.7499V16.2499C12.9998 16.5261 13.2237 16.7499 13.4998 16.7499H14.4998C14.776 16.7499 14.9998 16.5261 14.9998 16.2499ZM17.9998 16.2499V15.7499C17.9998 15.4738 17.776 15.2499 17.4998 15.2499H16.4998C16.2237 15.2499 15.9998 15.4738 15.9998 15.7499V16.2499C15.9998 16.5261 16.2237 16.7499 16.4998 16.7499H17.4998C17.776 16.7499 17.9998 16.5261 17.9998 16.2499ZM14.5799 8.66986L12.4198 2.94989C12.2998 2.62994 11.8999 2.53998 11.6598 2.77997L2.25985 11.81C2.12985 11.9399 2.07986 12.14 2.14986 12.31L3.70762 16.4269C3.78119 16.6213 3.96738 16.7499 4.17526 16.7499H6.37841C6.50766 16.7499 6.63189 16.6999 6.72504 16.6103L14.4599 9.16986C14.5998 9.03998 14.6399 8.8399 14.5799 8.66986Z" fill="currentColor"/>
</svg>
