<svg width="20" height="20" viewBox="0 0 20 20" fill="none" xmlns="http://www.w3.org/2000/svg">
<path d="M17.4796 3H2.52045C2.23297 3 2 3.23297 2 3.52039V16.4796C2 16.767 2.23297 17 2.52045 17H17.4796C17.767 17 18 16.767 18 16.4796V3.52039C18 3.23298 17.767 3 17.4796 3ZM16 13.5C16 13.7761 15.7761 14 15.5 14H13.75V11.5C13.75 11.2238 13.5261 11 13.25 11H12.75C12.4739 11 12.25 11.2238 12.25 11.5V14H10.75V11.5C10.75 11.2238 10.5261 11 10.25 11H9.75C9.47388 11 9.25 11.2238 9.25 11.5V14H7.75V11.5C7.75 11.2238 7.52612 11 7.25 11H6.75C6.47388 11 6.25 11.2238 6.25 11.5V14H4.5C4.22388 14 4 13.7761 4 13.5V8.5C4 8.22382 4.22388 8 4.5 8H6.5C6.77612 8 7 7.77612 7 7.5V6.5C7 6.22382 7.22388 6 7.5 6H12.5C12.7761 6 13 6.22382 13 6.5V7.5C13 7.77612 13.2239 8 13.5 8H15.5C15.7761 8 16 8.22382 16 8.5V13.5Z" fill="currentColor"/>
</svg>
