<svg width="20" height="20" viewBox="0 0 20 20" fill="none" xmlns="http://www.w3.org/2000/svg">
<path d="M10 2.5C5.59869 2.5 2.5 5.5498 2.5 9.75391V10.2461C2.5 14.4512 5.59869 17.5 10 17.5C14.4013 17.5 17.5 14.4502 17.5 10.2461V9.75391C17.5 5.54858 14.4014 2.5 10 2.5ZM9.52429 6.58594H10.4757C10.7322 6.58594 10.934 6.8147 10.9125 7.0813L10.6913 9.82349C10.6722 10.0601 10.4824 10.2422 10.2545 10.2422H9.74549C9.51765 10.2422 9.32783 10.0601 9.30872 9.82349L9.08753 7.0813C9.06605 6.8147 9.26776 6.58594 9.52429 6.58594ZM10 13.4141C9.44769 13.4141 9 12.9663 9 12.4141C9 11.8618 9.44769 11.4141 10 11.4141C10.5523 11.4141 11 11.8618 11 12.4141C11 12.9663 10.5523 13.4141 10 13.4141Z" fill="currentColor"/>
</svg>
