<svg width="20" height="20" viewBox="0 0 20 20" fill="none" xmlns="http://www.w3.org/2000/svg">
<path d="M3.5 3H7.5C7.77614 3 8 3.22386 8 3.5V4.5C8 4.77614 7.77614 5 7.5 5H5V7.5C5 7.77614 4.77614 8 4.5 8H3.5C3.22386 8 3 7.77614 3 7.5V3.5C3 3.22386 3.22386 3 3.5 3ZM12 3.5V4.5C12 4.77614 12.2239 5 12.5 5H15V7.5C15 7.77614 15.2239 8 15.5 8H16.5C16.7761 8 17 7.77614 17 7.5V3.5C17 3.22386 16.7761 3 16.5 3H12.5C12.2239 3 12 3.22386 12 3.5ZM15 12.5V15H12.5C12.2239 15 12 15.2239 12 15.5V16.5C12 16.7761 12.2239 17 12.5 17H16.5C16.7761 17 17 16.7761 17 16.5V12.5C17 12.2239 16.7761 12 16.5 12H15.5C15.2239 12 15 12.2239 15 12.5ZM3 12.5V16.5C3 16.7761 3.22386 17 3.5 17H7.5C7.77614 17 8 16.7761 8 16.5V15.5C8 15.2239 7.77614 15 7.5 15H5V12.5C5 12.2239 4.77614 12 4.5 12H3.5C3.22386 12 3 12.2239 3 12.5Z" fill="currentColor"/>
</svg>
