<svg width="20" height="20" viewBox="0 0 20 20" fill="none" xmlns="http://www.w3.org/2000/svg">
<path d="M13.4857 2H5.72443C5.44825 2 5.22443 2.22388 5.22443 2.5V11H15V3.51416C15 2.67798 14.322 2 13.4857 2ZM12 8.25C12 8.52612 11.7761 8.75 11.5 8.75H7.5C7.22388 8.75 7 8.52612 7 8.25V7.75C7 7.47388 7.22388 7.25 7.5 7.25H11.5C11.7761 7.25 12 7.47388 12 7.75V8.25ZM13 5.25C13 5.52612 12.7761 5.75 12.5 5.75H7.5C7.22388 5.75 7 5.52612 7 5.25V4.75C7 4.47388 7.22388 4.25 7.5 4.25H12.5C12.7761 4.25 13 4.47388 13 4.75V5.25ZM17.5 12H2.5C2.22388 12 2 12.2239 2 12.5V17.5C2 17.7761 2.22388 18 2.5 18H17.5C17.7761 18 18 17.7761 18 17.5V12.5C18 12.2239 17.7761 12 17.5 12ZM5 15.8999C4.50293 15.8999 4.09998 15.4971 4.09998 15C4.09998 14.5029 4.50293 14.1 5 14.1C5.49707 14.1 5.90002 14.5029 5.90002 15C5.90002 15.4971 5.49707 15.8999 5 15.8999Z" fill="currentColor"/>
</svg>
