<svg width="20" height="20" viewBox="0 0 20 20" fill="none" xmlns="http://www.w3.org/2000/svg">
<path d="M16.5 2H3.5C3.21997 2 3 2.21997 3 2.5V17.5C3 17.78 3.21997 18 3.5 18H11C12.1 18 13 17.1 13 16V14.49C13 14.21 13.23 13.98 13.51 13.98H15C16.1 13.98 17 13.08 17 11.98V2.5C17 2.21997 16.78 2 16.5 2ZM12 11.25C12 11.5261 11.7761 11.75 11.5 11.75H6.5C6.22388 11.75 6 11.5261 6 11.25V10.75C6 10.4738 6.22388 10.25 6.5 10.25H11.5C11.7761 10.25 12 10.4738 12 10.75V11.25ZM14 7.25C14 7.52612 13.7761 7.75 13.5 7.75H6.5C6.22388 7.75 6 7.52612 6 7.25V6.75C6 6.47382 6.22388 6.25 6.5 6.25H13.5C13.7761 6.25 14 6.47382 14 6.75V7.25Z" fill="currentColor"/>
</svg>
