<svg width="20" height="20" viewBox="0 0 20 20" fill="none" xmlns="http://www.w3.org/2000/svg">
<path d="M16.5 2H3.5C3.22388 2 3 2.22388 3 2.5V17.5C3 17.7761 3.22388 18 3.5 18H11C12.1 18 13 17.1001 13 16V14.49C13 14.2095 13.2295 13.98 13.51 13.98H15C16.1 13.98 17 13.0801 17 11.98V2.5C17 2.22388 16.7761 2 16.5 2ZM11 12.25L7.43347 9.79785C7.16211 9.61133 7 9.30322 7 8.97388V8.02588C7 7.69678 7.16211 7.38867 7.43347 7.20191L11 4.75001V12.25ZM12.3056 9.81396V7.18603C13.0312 7.18603 13.6195 7.77441 13.6195 8.49999C13.6195 9.22557 13.0312 9.81396 12.3056 9.81396Z" fill="currentColor"/>
</svg>
