<svg width="20" height="20" viewBox="0 0 20 20" fill="none" xmlns="http://www.w3.org/2000/svg">
<path d="M16.5 2H3.5C3.21997 2 3 2.21997 3 2.5V17.5C3 17.78 3.21997 18 3.5 18H11C12.1 18 13 17.1 13 16V14.49C13 14.21 13.23 13.98 13.51 13.98H15C16.1 13.98 17 13.08 17 11.98V2.5C17 2.21997 16.78 2 16.5 2ZM9.12158 4.55786C9.24658 4.52978 9.36816 4.63232 9.36816 4.76037V7.44677C9.36816 7.58483 9.26202 7.69677 8.94073 7.69677H6.32794C6.19732 7.69677 6.09949 7.57055 6.1322 7.44408C6.50506 6.00267 7.66186 4.8855 9.12158 4.55786ZM13.8951 9.37671C13.5654 10.84 12.371 12.0259 10.9059 12.3473C8.68341 12.8347 6.68847 11.4739 6.14825 9.50964C6.1051 9.35278 6.23327 9.19677 6.39599 9.19677H10.3682C10.6443 9.19677 10.8682 8.97289 10.8682 8.69677V4.87756C10.8682 4.71191 11.0298 4.58313 11.1881 4.63232C13.0911 5.22387 14.3872 7.19239 13.8951 9.37671Z" fill="currentColor"/>
</svg>
