<svg width="20" height="20" viewBox="0 0 20 20" fill="none" xmlns="http://www.w3.org/2000/svg">
<path d="M16.5 2H3.5C3.21997 2 3 2.21997 3 2.5V17.5C3 17.78 3.21997 18 3.5 18H11C12.1 18 13 17.1 13 16V14.49C13 14.21 13.23 13.98 13.51 13.98H15C16.1 13.98 17 13.08 17 11.98V2.5C17 2.21997 16.78 2 16.5 2ZM13.2515 9.85345L10.3535 12.7515C10.1583 12.9467 9.84167 12.9467 9.64642 12.7515L6.74847 9.85351C6.43353 9.53857 6.65661 8.99999 7.10205 8.99999H9V5.5C9 5.22382 9.22388 5 9.5 5H10.4999C10.7761 5 10.9999 5.22382 10.9999 5.5V9H12.898C13.3433 9 13.5664 9.53851 13.2515 9.85345Z" fill="currentColor"/>
</svg>
