<svg width="20" height="20" viewBox="0 0 20 20" fill="none" xmlns="http://www.w3.org/2000/svg">
<path d="M16.5 2H3.5C3.21997 2 3 2.21997 3 2.5V17.5C3 17.78 3.21997 18 3.5 18H11C12.1 18 13 17.1 13 16V14.49C13 14.21 13.23 13.98 13.51 13.98H15C16.1 13.98 17 13.08 17 11.98V2.5C17 2.21997 16.78 2 16.5 2ZM14 9.25C14 9.52612 13.7761 9.75 13.5 9.75H10.75V12.5C10.75 12.7761 10.5261 13 10.25 13H9.75C9.47388 13 9.25 12.7761 9.25 12.5V9.75H6.5C6.22388 9.75 6 9.52612 6 9.25V8.75C6 8.47382 6.22388 8.25 6.5 8.25H9.25V5.5C9.25 5.22382 9.47388 5 9.75 5H10.25C10.5261 5 10.75 5.22382 10.75 5.5V8.25H13.5C13.7761 8.25 14 8.47382 14 8.75V9.25Z" fill="currentColor"/>
</svg>
