<svg width="20" height="20" viewBox="0 0 20 20" fill="none" xmlns="http://www.w3.org/2000/svg">
<path d="M4.27704 9.20996H3.77478C3.48914 9.20996 3.24789 8.96978 3.27333 8.68527C3.56091 5.46887 6.46781 2.93311 9.99997 2.93311C10.5926 2.93311 11.1761 3.00378 11.7408 3.14356C12.0165 3.2118 12.1676 3.51187 12.0792 3.7818L11.9218 4.26255C11.8391 4.51508 11.5769 4.64573 11.3182 4.58481C10.8905 4.48406 10.4488 4.4331 9.99997 4.4331C7.28015 4.4331 5.03698 6.32463 4.77544 8.73755C4.74685 9.00135 4.54239 9.20996 4.27704 9.20996Z" fill="currentColor"/>
<path d="M4.25 10.2627H3.75C3.47386 10.2627 3.25 10.4866 3.25 10.7627V15.5C3.25 15.7761 3.47386 16 3.75 16H4.25C4.52614 16 4.75 15.7761 4.75 15.5V10.7627C4.75 10.4866 4.52614 10.2627 4.25 10.2627Z" fill="currentColor"/>
<path d="M9.75 9.52783H10.25C10.5261 9.52783 10.75 9.75169 10.75 10.0278V13.5C10.75 13.7761 10.5261 14 10.25 14H9.75C9.47386 14 9.25 13.7761 9.25 13.5V10.0278C9.25 9.75169 9.47386 9.52783 9.75 9.52783Z" fill="currentColor"/>
<path d="M7.25 17H6.75C6.47386 17 6.25 16.7718 6.25 16.4904V9.35658C6.25 9.07516 6.47386 8.84702 6.75 8.84702H7.25C7.52614 8.84702 7.75 9.07516 7.75 9.35658V16.4904C7.75 16.7718 7.52614 17 7.25 17Z" fill="currentColor"/>
<path d="M12.7449 11.9044H13.2449C13.5211 11.9044 13.7449 11.6763 13.7449 11.3948V10.0189C13.7449 8.03963 12.334 6.27253 10.4024 6.06626C9.44577 5.9641 8.52168 6.22392 7.7757 6.78446C7.52176 6.97528 7.50421 7.32817 7.72741 7.55543L8.08557 7.9201C8.2499 8.08742 8.53508 8.10556 8.7266 7.9716C9.16247 7.66672 9.69211 7.52777 10.2396 7.58623C11.3506 7.70486 12.2449 8.84551 12.2449 9.98392V11.3948C12.2449 11.6763 12.4688 11.9044 12.7449 11.9044Z" fill="currentColor"/>
<path d="M13.25 13H12.75C12.4739 13 12.25 13.2239 12.25 13.5V16.5C12.25 16.7761 12.4739 17 12.75 17H13.25C13.5261 17 13.75 16.7761 13.75 16.5V13.5C13.75 13.2239 13.5261 13 13.25 13Z" fill="currentColor"/>
<path d="M15.75 10.2627H16.25C16.5261 10.2627 16.75 10.4866 16.75 10.7627V15.5C16.75 15.7761 16.5261 16 16.25 16H15.75C15.4739 16 15.25 15.7761 15.25 15.5V10.7627C15.25 10.4866 15.4739 10.2627 15.75 10.2627Z" fill="currentColor"/>
<path d="M10.25 15H9.75C9.47386 15 9.25 15.2239 9.25 15.5V17.5C9.25 17.7761 9.47386 18 9.75 18H10.25C10.5261 18 10.75 17.7761 10.75 17.5V15.5C10.75 15.2239 10.5261 15 10.25 15Z" fill="currentColor"/>
<path d="M15.7306 9.14794H16.2566C16.5439 9.14794 16.7879 8.90517 16.7593 8.61929C16.5943 6.97425 15.6725 5.39542 14.2884 4.39021C14.0566 4.22185 13.7249 4.30609 13.5779 4.55199L13.3184 4.986C13.1841 5.21062 13.257 5.49003 13.4664 5.64693C14.46 6.39121 15.1248 7.52404 15.2603 8.70394C15.2887 8.95197 15.4809 9.14794 15.7306 9.14794Z" fill="currentColor"/>
</svg>
