<svg width="20" height="20" viewBox="0 0 20 20" fill="none" xmlns="http://www.w3.org/2000/svg">
<path d="M14.2589 15.4124C14.7198 16.1692 15 17.0488 15 18H5C5 17.1514 5.2312 16.3648 5.60413 15.6646L2.96973 13.0303L4.03028 11.9697L6.49769 14.437C7.39997 13.5501 8.63477 13 10 13C11.0386 13 12.0027 13.3174 12.8021 13.8594C14.0696 13.4863 15 12.3504 15 11C15 10.22 14.69 9.48999 14.18 8.95996L15.59 7.55005C16.47 8.44995 17 9.65991 17 11C17 12.9246 15.8793 14.5767 14.2589 15.4124ZM7.30176 11.1514L8.84107 9.61181C9.78791 10.1411 11.0031 10.0139 11.808 9.20898L15.2941 5.7229C15.5369 5.47998 15.5369 5.08643 15.2941 4.84375L12.6564 2.20581C12.4136 1.96313 12.0199 1.96313 11.7771 2.20581L8.29095 5.69189C7.52563 6.45727 7.37304 7.59375 7.8139 8.51782L6.24121 10.0908L7.30176 11.1514Z" fill="currentColor"/>
</svg>
