<svg width="20" height="20" viewBox="0 0 20 20" fill="none" xmlns="http://www.w3.org/2000/svg">
<path d="M6.31192 14.7454L6.5619 13.577C6.62357 13.3358 6.84521 13.1667 7.09947 13.1667H12.8836C13.1379 13.1667 13.3595 13.3358 13.4212 13.577L13.6711 14.7454C13.9147 15.7766 14.7901 16.5 15.7944 16.5H15.8109C17.0889 16.5 18.0955 15.3501 17.9928 14.0018C17.8177 11.7028 17.5587 8.41827 17.3933 6.84204C17.2448 5.42863 16.241 4.28169 14.9226 4.00768C12.9933 3.60685 11.3033 3.5 9.99153 3.5C8.12529 3.5 6.46277 3.71608 5.05694 4.00847C3.73632 4.28314 2.73836 5.42704 2.58974 6.84296L2.00824 13.9846C1.89809 15.3375 2.90586 16.5 4.18871 16.5C5.19296 16.5 6.06835 15.7766 6.31192 14.7454ZM8.99086 8.74601H7.746V9.99333C7.746 10.268 7.52334 10.4907 7.24867 10.4907H6.75134C6.47667 10.4907 6.25401 10.268 6.25401 9.99333V8.74601H5.01025C4.73558 8.74601 4.51292 8.52335 4.51292 8.24868V7.75135C4.51292 7.47668 4.73558 7.25402 5.01025 7.25402H6.25401V6.01272C6.25401 5.73805 6.47667 5.51539 6.75134 5.51539H7.24867C7.52334 5.51539 7.746 5.73805 7.746 6.01272V7.25402H8.99086C9.26553 7.25402 9.48819 7.47668 9.48819 7.75135V8.24868C9.48819 8.52335 9.26553 8.74601 8.99086 8.74601ZM12 10.1C11.3925 10.1 10.9 9.60746 10.9 8.99999C10.9 8.39252 11.3925 7.89999 12 7.89999C12.6075 7.89999 13.1 8.39252 13.1 8.99999C13.1 9.60746 12.6075 10.1 12 10.1ZM15 8.09999C14.3925 8.09999 13.9 7.60746 13.9 6.99999C13.9 6.39252 14.3925 5.89999 15 5.89999C15.6075 5.89999 16.1 6.39252 16.1 6.99999C16.1 7.60746 15.6075 8.09999 15 8.09999Z" fill="currentColor"/>
</svg>
