<svg width="20" height="20" viewBox="0 0 20 20" fill="none" xmlns="http://www.w3.org/2000/svg">
<path d="M17.4298 16.4C16.6498 17.19 15.4198 17.1401 14.5898 16.4C13.8398 15.73 11.9998 13.6 10.3798 11.6401C10.3798 11.6401 10.3198 11.5701 10.2298 11.45C10.6498 11.1401 11.0498 10.8001 11.4298 10.42C11.8098 10.0401 12.1597 9.63006 12.4798 9.20001C14.4798 10.85 16.7398 12.7801 17.4298 13.5601C18.1698 14.3901 18.2098 15.6201 17.4298 16.4ZM7.8865 11.1421C9.10012 10.5381 9.93692 9.79169 10.3646 9.36407C11.234 8.49469 11.7906 7.6026 12.1453 6.88873L12.369 7.11236C12.565 7.30828 12.8825 7.30828 13.0784 7.11236L13.7877 6.40313C13.9837 6.20709 13.9837 5.88958 13.7877 5.69366L10.241 2.14703C10.0451 1.95099 9.72756 1.95099 9.53164 2.14703L8.82229 2.85626C8.62643 3.05218 8.62643 3.36969 8.82229 3.56573L9.04873 3.79205C7.83511 4.39605 6.99838 5.14239 6.5707 5.57013C5.70125 6.43951 5.14461 7.3316 4.78988 8.04547L4.56619 7.82184C4.37033 7.6258 4.05276 7.6258 3.85684 7.82184L3.14749 8.53107C2.95163 8.72699 2.95163 9.0445 3.14749 9.24054L6.69424 12.7872C6.89016 12.9831 7.20773 12.9831 7.40359 12.7872L8.11294 12.0779C8.30886 11.8819 8.30886 11.5644 8.11294 11.3685L7.8865 11.1421ZM9.77891 16.3412L9.4437 15.3412C9.3754 15.1374 9.18453 15.0001 8.96963 15.0001H3.02993C2.81502 15.0001 2.62416 15.1374 2.55586 15.3412L2.22065 16.3412C2.11207 16.6651 2.35309 17.0001 2.69472 17.0001H9.30483C9.64646 17.0001 9.88748 16.6651 9.7789 16.3412H9.77891Z" fill="currentColor"/>
</svg>
