<svg width="20" height="20" viewBox="0 0 20 20" fill="none" xmlns="http://www.w3.org/2000/svg">
<path d="M7.51758 10C7.51758 5.43408 8.98828 2.52051 10 2.52051C11.0117 2.52051 12.4824 5.43408 12.4824 10C12.4824 10.0121 12.4821 10.0238 12.4817 10.0355C12.4814 10.0467 12.481 10.058 12.481 10.0696C11.7328 10.1573 10.905 10.2085 10 10.2085C9.09503 10.2085 8.26721 10.1573 7.51898 10.0696C7.51895 10.058 7.51861 10.0468 7.51828 10.0356C7.51793 10.0238 7.51758 10.0121 7.51758 10Z" fill="currentColor"/>
<path d="M9.99994 11.7085C10.8143 11.7085 11.6299 11.665 12.4203 11.5808C12.1323 15.2268 10.8893 17.4795 9.99994 17.4795C9.1106 17.4795 7.86755 15.2268 7.57959 11.5808C8.36994 11.665 9.18555 11.7085 9.99994 11.7085Z" fill="currentColor"/>
<path d="M13.979 9.82446C15.5057 9.50076 16.5457 9.02342 17.0712 8.59037C17.2241 8.46437 17.2949 8.2634 17.244 8.07192C16.6684 5.90449 15.1474 4.12684 13.1482 3.20037C12.9304 3.09942 12.7127 3.31496 12.81 3.53448C13.5587 5.22473 13.9595 7.54978 13.979 9.82446Z" fill="currentColor"/>
<path d="M7.19013 3.53448C6.4414 5.22473 6.0406 7.54978 6.02108 9.82446C4.49439 9.50075 3.4544 9.02341 2.92892 8.59037C2.77602 8.46437 2.70522 8.26341 2.75607 8.07192C3.33166 5.90449 4.85273 4.12684 6.8519 3.20037C7.06974 3.09942 7.28737 3.31496 7.19013 3.53448Z" fill="currentColor"/>
<path d="M6.06594 11.3604C5.02421 11.1662 4.07016 10.8908 3.27826 10.5367C2.91771 10.3755 2.52486 10.6736 2.58049 11.0646C2.94348 13.616 4.5904 15.7499 6.84732 16.7977C7.05717 16.8951 7.28768 16.6922 7.19377 16.4808C6.57242 15.0817 6.1905 13.2444 6.06594 11.3604Z" fill="currentColor"/>
<path d="M12.8058 16.4808C13.4271 15.0817 13.809 13.2444 13.9336 11.3604C14.9753 11.1662 15.9294 10.8908 16.7213 10.5367C17.0818 10.3755 17.4747 10.6736 17.419 11.0646C17.056 13.616 15.4091 15.7499 13.1522 16.7977C12.9424 16.8951 12.7118 16.6922 12.8058 16.4808Z" fill="currentColor"/>
</svg>
