<svg width="20" height="20" viewBox="0 0 20 20" fill="none" xmlns="http://www.w3.org/2000/svg">
<path d="M10 2.5C5.85785 2.5 2.5 5.85791 2.5 10C2.5 14.1421 5.85785 17.5 10 17.5C14.1421 17.5 17.5 14.1421 17.5 10C17.5 5.85791 14.1421 2.5 10 2.5ZM12.04 12.78C10.96 13.22 12.31 14.09 11.28 14.64C10.31 15.1599 11.44 16.63 10.25 16.02C9.06 15.4099 8.70001 13.59 8.64001 13.0701C8.58001 12.5501 7.32 12.46 7.45001 11.55C7.53998 10.9399 7.97998 10.73 8.35998 10.4399C8.72998 10.1599 8.53002 8.94995 8.20001 8.65991C7.86999 8.38 6.94 8.61999 6.53003 8.06006C6.10999 7.48999 5.33002 7.59998 5.51001 6.69995C5.59998 6.26001 5.52002 6.01001 5.31 5.81006C6.46002 4.52002 8.14002 3.69995 10 3.69995C10.17 3.69995 10.33 3.70996 10.49 3.71997C10.65 4.04004 10.38 4.63 10.54 4.97998C11.07 6.08997 12.927 3.91064 13.1096 4.73901C13.2246 5.29614 12.893 5.68628 12.2619 6.12756C11.8317 6.42846 11.2643 6.84814 11.4028 7.5686C11.5124 8.13818 11.098 9.04052 10.6179 7.58996C10.462 7.11865 9.23999 6.89001 8.89001 7.19995C8.53997 7.5 8.66998 7.85998 8.78997 8.32007C8.91997 8.78003 9.21996 9.73999 9.74999 9.89002C10.28 10.0401 12.39 9.67994 12.97 10.37C13.54 11.05 13.12 12.35 12.04 12.78Z" fill="currentColor"/>
</svg>
