<svg width="20" height="20" viewBox="0 0 20 20" fill="none" xmlns="http://www.w3.org/2000/svg">
<path d="M5.5 9H2.5C2.22386 9 2 8.77614 2 8.5V5.5C2 5.22386 2.22386 5 2.5 5H5.5C5.77614 5 6 5.22386 6 5.5V8.5C6 8.77614 5.77614 9 5.5 9ZM12 8.5V5.5C12 5.22386 11.7761 5 11.5 5H8.5C8.22386 5 8 5.22386 8 5.5V8.5C8 8.77614 8.22386 9 8.5 9H11.5C11.7761 9 12 8.77614 12 8.5ZM18 8.5V5.5C18 5.22386 17.7761 5 17.5 5H14.5C14.2239 5 14 5.22386 14 5.5V8.5C14 8.77614 14.2239 9 14.5 9H17.5C17.7761 9 18 8.77614 18 8.5ZM6 14.5V11.5C6 11.2239 5.77614 11 5.5 11H2.5C2.22386 11 2 11.2239 2 11.5V14.5C2 14.7761 2.22386 15 2.5 15H5.5C5.77614 15 6 14.7761 6 14.5ZM12 14.5V11.5C12 11.2239 11.7761 11 11.5 11H8.5C8.22386 11 8 11.2239 8 11.5V14.5C8 14.7761 8.22386 15 8.5 15H11.5C11.7761 15 12 14.7761 12 14.5ZM18 14.5V11.5C18 11.2239 17.7761 11 17.5 11H14.5C14.2239 11 14 11.2239 14 11.5V14.5C14 14.7761 14.2239 15 14.5 15H17.5C17.7761 15 18 14.7761 18 14.5Z" fill="currentColor"/>
</svg>
