<svg width="20" height="20" viewBox="0 0 20 20" fill="none" xmlns="http://www.w3.org/2000/svg">
<path d="M11 5.5V2.5C11 2.22386 11.2239 2 11.5 2H14.5C14.7761 2 15 2.22386 15 2.5V5.5C15 5.77614 14.7761 6 14.5 6H11.5C11.2239 6 11 5.77614 11 5.5ZM11.5 12H14.5C14.7761 12 15 11.7761 15 11.5V8.5C15 8.22386 14.7761 8 14.5 8H11.5C11.2239 8 11 8.22386 11 8.5V11.5C11 11.7761 11.2239 12 11.5 12ZM11.5 18H14.5C14.7761 18 15 17.7761 15 17.5V14.5C15 14.2239 14.7761 14 14.5 14H11.5C11.2239 14 11 14.2239 11 14.5V17.5C11 17.7761 11.2239 18 11.5 18ZM5.5 6H8.5C8.77614 6 9 5.77614 9 5.5V2.5C9 2.22386 8.77614 2 8.5 2H5.5C5.22386 2 5 2.22386 5 2.5V5.5C5 5.77614 5.22386 6 5.5 6ZM5.5 12H8.5C8.77614 12 9 11.7761 9 11.5V8.5C9 8.22386 8.77614 8 8.5 8H5.5C5.22386 8 5 8.22386 5 8.5V11.5C5 11.7761 5.22386 12 5.5 12ZM5.5 18H8.5C8.77614 18 9 17.7761 9 17.5V14.5C9 14.2239 8.77614 14 8.5 14H5.5C5.22386 14 5 14.2239 5 14.5V17.5C5 17.7761 5.22386 18 5.5 18Z" fill="currentColor"/>
</svg>
