<svg width="20" height="20" viewBox="0 0 20 20" fill="none" xmlns="http://www.w3.org/2000/svg">
<path d="M16 6C15.4477 6 15 6.44771 15 7V9.5C15 9.77614 14.7761 10 14.5 10C14.2239 10 14 9.77614 14 9.5V4C14 3.44772 13.5523 3 13 3C12.4477 3 12 3.44771 12 4V9.5C12 9.77614 11.7761 10 11.5 10C11.2239 10 11 9.77614 11 9.5V3C11 2.44771 10.5523 2 10 2C9.44772 2 9 2.44771 9 3V9.5C9 9.77614 8.77614 10 8.5 10C8.22386 10 8 9.77614 8 9.5V5C8 4.44772 7.55229 4 7 4C6.44772 4 6 4.44771 6 5V13C6 13 5.16876 12.848 4.7702 12.0387C4.70216 11.9005 4.63855 11.7642 4.57907 11.6302C4.20033 10.7771 3.19906 10.4003 2.36419 10.8179L2 11C2 11 2 13 4.1051 15.4813C5.53445 17.1662 7.82719 18.1322 10.537 17.9853C14.1825 17.7878 17 14.6924 17 11.0417V7C17 6.44772 16.5523 6 16 6Z" fill="currentColor"/>
</svg>
