<svg width="20" height="20" viewBox="0 0 20 20" fill="none" xmlns="http://www.w3.org/2000/svg">
<path d="M16.6984 4.15478C15.7245 3.18046 14.3786 2.71429 12.9804 2.88857C11.9557 3.0163 11.0217 3.54591 10.2914 4.27608L10 4.56749L9.70856 4.27608C8.97831 3.5459 8.0443 3.0163 7.01956 2.88857C5.62141 2.71429 4.27547 3.18046 3.30164 4.15478C2.46222 4.99365 2 6.1101 2 7.29711C2 7.62194 2.04181 7.93932 2.10992 8.24999H6.43213L7.80127 5.96825C7.90516 5.79511 8.16082 5.81017 8.24367 5.9943L9.69043 9.20946L10.2661 8.24999H13.5C13.7761 8.24999 14 8.47387 14 8.74999V9.24999C14 9.52611 13.7761 9.74999 13.5 9.74999H11.1157L9.74609 12.0319C9.64219 12.205 9.38658 12.1899 9.30374 12.0058L7.85693 8.79052L7.28173 9.74999H2.74463C3.50804 10.5641 8.30004 15.4873 9.65514 16.8789C9.85081 17.0798 10.1734 17.0805 10.37 16.8804L16.6984 10.4395C17.5378 9.60046 18 8.48413 18 7.29712C18 6.11011 17.5378 4.99364 16.6984 4.15478Z" fill="currentColor"/>
</svg>
