<svg width="20" height="20" viewBox="0 0 20 20" fill="none" xmlns="http://www.w3.org/2000/svg">
<path d="M10 2.5C5.59869 2.5 2.5 5.5498 2.5 9.75391V10.2461C2.5 14.4513 5.59869 17.5 10 17.5C14.4013 17.5 17.5 14.4502 17.5 10.2461V9.75391C17.5 5.54858 14.4014 2.5 10 2.5ZM10 14.8749C9.5029 14.8749 9.1 14.4719 9.1 13.9748C9.1 13.4778 9.5029 13.0749 10 13.0749C10.4971 13.0749 10.9 13.4778 10.9 13.9748C10.9 14.4719 10.4971 14.8749 10 14.8749ZM9.07963 10.2858C8.95448 9.75436 9.36325 9.24618 9.91731 9.24442L9.88429 9.24352C11.2933 9.24352 11.7146 8.70912 11.7146 7.92539V7.9022C11.7146 7.23734 11.1964 6.77444 10.3288 6.77444C9.69421 6.77444 9.15209 7.00642 8.65379 7.43545C8.48685 7.57919 8.23966 7.58141 8.08795 7.42214L7.71662 7.03231C7.57256 6.88107 7.56727 6.63932 7.71805 6.49457C8.37918 5.85989 9.21743 5.44568 10.3651 5.44568C12.0522 5.44568 13.1976 6.37147 13.1976 7.85485V7.87804C13.1976 9.37399 12.4822 10.3643 10.7626 10.512L10.6711 11.64C10.6546 11.8433 10.4822 12 10.2751 12H9.65088C9.45086 12 9.28203 11.8536 9.25681 11.6582L9.07963 10.2858Z" fill="currentColor"/>
</svg>
