<svg width="20" height="20" viewBox="0 0 20 20" fill="none" xmlns="http://www.w3.org/2000/svg">
<path d="M12.3613 9.57276L15.9949 8.89832C15.9399 5.07984 12.8316 2 9 2C5.13403 2.00001 2 5.13404 2 9.00001C2 12.4273 4.46478 15.2742 7.71741 15.8773C7.96289 15.2037 8.58039 14.7107 9.34717 14.6494C10.4072 14.5635 11.4038 14.0752 12.1397 13.3154L11.6416 12.9736C11.0122 12.5415 10.708 11.7798 10.8657 11.0327C11.0239 10.2861 11.6108 9.7129 12.3613 9.57276ZM9.75 9.05762C9.75 9.23072 9.6604 9.3916 9.51312 9.48267L6.65374 11.3575C6.41888 11.5028 6.11071 11.4303 5.96539 11.1954L5.58404 10.6072C5.43878 10.3723 5.51129 10.0642 5.74597 9.91895L8.25 8.28736V5.06764C8.25 4.79152 8.47388 4.56764 8.75 4.56764H9.25C9.52612 4.56764 9.75 4.79152 9.75 5.06764V9.05762ZM17.9958 14.6422C18.0742 15.0638 17.6038 15.3695 17.2503 15.1267L15.7018 14.0634C14.4369 16.2917 12.1035 17.7987 9.50196 17.9714C9.22895 17.9894 9.00001 17.7601 9.00001 17.4865V16.5221C9.00001 16.2653 9.20295 16.0653 9.45899 16.0447C11.4352 15.8847 13.1915 14.6972 14.1058 12.9674L12.4339 11.8193C12.0805 11.5766 12.197 11.0278 12.6184 10.9494L16.6804 10.195C16.9418 10.1465 17.1929 10.319 17.2415 10.5802L17.9958 14.6422Z" fill="currentColor"/>
</svg>
