<svg width="20" height="20" viewBox="0 0 20 20" fill="none" xmlns="http://www.w3.org/2000/svg">
<path d="M16.5 8.96872C16.7761 8.96872 17 8.74484 17 8.46872V7.46872C17 7.1926 16.7761 6.96872 16.5 6.96872H13.9705L14.4053 3.97141C14.4449 3.69822 14.2555 3.44431 13.9822 3.40476L12.9924 3.26121C12.7191 3.22166 12.4655 3.41087 12.4258 3.68431L11.9493 6.96873H9.2406L9.66406 4.04954C9.70367 3.77635 9.51428 3.52244 9.24103 3.48289L8.25116 3.33934C7.97791 3.29979 7.72424 3.489 7.68457 3.76244L7.21948 6.96874H3.5C3.22388 6.96874 3 7.19262 3 7.46874V8.46874C3 8.74486 3.22388 8.96874 3.5 8.96874H6.92938L6.4956 11.959H3.5C3.22388 11.959 3 12.1828 3 12.459V13.459C3 13.7351 3.22388 13.959 3.5 13.959H6.20551L5.84668 16.4328C5.80707 16.706 5.99646 16.9599 6.26971 16.9995L7.25958 17.143C7.53283 17.1826 7.7865 16.9931 7.82617 16.7199L8.22668 13.959H10.9354L10.5879 16.3547C10.5483 16.6279 10.7377 16.8818 11.0109 16.9214L12.0008 17.0649C12.274 17.1045 12.5277 16.915 12.5674 16.6418L12.9565 13.9589H16.5C16.7761 13.9589 17 13.7351 17 13.4589V12.4589C17 12.1828 16.7761 11.9589 16.5 11.9589H13.2466L13.6804 8.96872H16.5ZM11.2255 11.9589H8.51678L8.9505 8.96872H11.6592L11.2255 11.9589Z" fill="currentColor"/>
</svg>
