<svg width="20" height="20" viewBox="0 0 20 20" fill="none" xmlns="http://www.w3.org/2000/svg">
<path d="M17.5 9H16.9201C16.4793 5.94141 14.0587 3.52075 11 3.07983V2.5C11 2.22388 10.7761 2 10.5 2H9.5C9.22388 2 9 2.22388 9 2.5V3.07983C5.94128 3.52075 3.52069 5.94141 3.0799 9H2.5C2.22388 9 2 9.22388 2 9.5V10.5C2 10.7761 2.22388 11 2.5 11H3.0799C3.5207 14.0586 5.94129 16.4792 9 16.9202V17.5C9 17.7761 9.22388 18 9.5 18H10.5C10.7761 18 11 17.7761 11 17.5V16.9202C14.0587 16.4792 16.4793 14.0586 16.9201 11H17.5C17.7761 11 18 10.7761 18 10.5V9.5C18 9.22388 17.7761 9 17.5 9ZM11 14.8989V13.5C11 13.2239 10.7761 13 10.5 13H9.5C9.22388 13 9 13.2239 9 13.5V14.8989C7.04395 14.5002 5.49982 12.9561 5.10107 11H6.5C6.77612 11 7 10.7761 7 10.5V9.5C7 9.22388 6.77612 9 6.5 9H5.10107C5.49981 7.04395 7.04394 5.49976 9 5.10107V6.5C9 6.77612 9.22388 7 9.5 7H10.5C10.7761 7 11 6.77612 11 6.5V5.10107C12.956 5.49975 14.5002 7.04394 14.8989 9H13.5C13.2239 9 13 9.22388 13 9.5V10.5C13 10.7761 13.2239 11 13.5 11H14.8989C14.5002 12.956 12.9561 14.5002 11 14.8989ZM12 10C12 11.1045 11.1046 12 10 12C8.89545 12 8 11.1045 8 10C8 8.89551 8.89545 8 10 8C11.1046 8 12 8.89551 12 10Z" fill="currentColor"/>
</svg>
