<svg width="20" height="20" viewBox="0 0 20 20" fill="none" xmlns="http://www.w3.org/2000/svg">
<path d="M3.5 17.0002H2.5C2.22386 17.0002 2 16.7763 2 16.5002V10.5002C2 10.224 2.22386 10.0002 2.5 10.0002H3.5C3.77614 10.0002 4 10.224 4 10.5002V16.5002C4 16.7763 3.77614 17.0002 3.5 17.0002ZM5.52618 17.0002H13.6577C15.0343 17.0002 16.2342 16.0633 16.5681 14.7278L17.6894 10.2427C17.8472 9.61154 17.3698 9.00016 16.7192 9.00016H11.8658C11.5569 9.00016 11.3218 8.72273 11.3726 8.41796L11.9468 4.97294C12.0329 4.45658 11.8768 3.9633 11.5684 3.59928C11.2589 3.23406 10.7656 3.09138 10.4133 3.0357C10.1774 2.99843 9.95599 3.12648 9.87121 3.34967C9.47197 4.40067 8.88178 5.66739 7.99999 7.00016C7.16375 8.26408 6.28545 9.25455 5.52617 10.0002L5.52618 17.0002Z" fill="#404A52"/>
</svg>
