<svg width="20" height="20" viewBox="0 0 20 20" fill="none" xmlns="http://www.w3.org/2000/svg">
<path d="M16.5 17H3.5C3.22386 17 3 16.7761 3 16.5V3.5C3 3.22386 3.22386 3 3.5 3H16.5C16.7761 3 17 3.22386 17 3.5V16.5C17 16.7761 16.7761 17 16.5 17ZM12.9639 12.8838C13.1885 12.7043 13.1876 12.3589 12.9843 12.1557L12.2983 11.4697C11.029 12.7391 8.971 12.7391 7.70166 11.4697L7.01574 12.1557C6.81244 12.3589 6.81153 12.7043 7.0361 12.8838C7.89936 13.5739 8.94986 13.9189 10 13.9189C11.0501 13.9189 12.1006 13.5739 12.9639 12.8838ZM10.75 9.5V5.5C10.75 5.22386 10.5261 5 10.25 5H9.75C9.47386 5 9.25 5.22386 9.25 5.5V9.5C9.25 9.77614 9.47386 10 9.75 10H10.25C10.5261 10 10.75 9.77614 10.75 9.5ZM13.75 8.5V6.5C13.75 6.22386 13.5261 6 13.25 6H12.75C12.4739 6 12.25 6.22386 12.25 6.5V8.5C12.25 8.77614 12.4739 9 12.75 9H13.25C13.5261 9 13.75 8.77614 13.75 8.5ZM7.75 8.5V6.5C7.75 6.22386 7.52614 6 7.25 6H6.75C6.47386 6 6.25 6.22386 6.25 6.5V8.5C6.25 8.77614 6.47386 9 6.75 9H7.25C7.52614 9 7.75 8.77614 7.75 8.5Z" fill="currentColor"/>
</svg>
