<svg width="20" height="20" viewBox="0 0 20 20" fill="none" xmlns="http://www.w3.org/2000/svg">
<path fill-rule="evenodd" clip-rule="evenodd" d="M16.5 13H3.5C3.22388 13 3 12.7761 3 12.5V3.4859C3 3.21753 3.21753 3 3.4859 3H16.5141C16.7825 3 17 3.21753 17 3.4859V12.5C17 12.7761 16.7761 13 16.5 13ZM12.2375 6.2384C12.1231 6.33954 12.1124 6.51428 12.2135 6.62866L13.4255 7.99999L12.2135 9.37127C12.1124 9.48571 12.1231 9.66039 12.2375 9.76153L12.6516 10.1276C12.7661 10.2287 12.9407 10.2179 13.0419 10.1036L14.7399 8.1831C14.8325 8.07855 14.8325 7.92144 14.7399 7.81683L13.0419 5.89636C12.9407 5.78198 12.7661 5.77123 12.6516 5.87237L12.2375 6.2384ZM10.793 4.32874C10.6475 4.28235 10.492 4.36273 10.4456 4.50824L8.32709 11.1559C8.2807 11.3014 8.36102 11.4569 8.50653 11.5033L9.0332 11.6712C9.17871 11.7176 9.33428 11.6373 9.38061 11.4918L11.4991 4.84406C11.5455 4.69855 11.4651 4.54304 11.3197 4.49665L10.793 4.32874ZM6.95813 5.89636L5.26007 7.81683C5.16754 7.92144 5.16754 8.07856 5.26007 8.18311L6.95813 10.1036C7.05927 10.218 7.23395 10.2287 7.34839 10.1276L7.76245 9.76154C7.87689 9.6604 7.88764 9.48572 7.7865 9.37128L6.57452 8L7.7865 6.62866C7.88763 6.51428 7.87689 6.33954 7.76245 6.2384L7.34839 5.87237C7.23395 5.77124 7.05927 5.78198 6.95813 5.89636Z" fill="currentColor"/>
<path d="M12.0456 14.5095H17.4867C17.839 14.5095 18.0864 14.9308 17.9715 15.3351C17.6885 16.3314 16.916 17 16.0479 17H3.95209C3.08398 17 2.31146 16.3314 2.02844 15.3351C1.91357 14.9308 2.16101 14.5095 2.5133 14.5095H7.95448C8.10505 14.5095 8.23939 14.6041 8.29023 14.7457L8.47956 15.2733C8.5304 15.415 8.66474 15.5095 8.81531 15.5095H11.1847C11.3353 15.5095 11.4696 15.415 11.5204 15.2733L11.7098 14.7457C11.7607 14.604 11.895 14.5095 12.0456 14.5095Z" fill="currentColor"/>
</svg>
