<svg width="20" height="20" viewBox="0 0 20 20" fill="none" xmlns="http://www.w3.org/2000/svg">
<path d="M3.5 13H16.5C16.7761 13 17 12.7761 17 12.5V3.4859C17 3.21753 16.7825 3 16.5141 3H3.4859C3.21753 3 3 3.21753 3 3.4859V12.5C3 12.7761 3.22388 13 3.5 13ZM17.9716 15.3351C17.6885 16.3314 16.916 17 16.0479 17H3.95209C3.08399 17 2.31147 16.3314 2.02844 15.3351C1.91357 14.9308 2.16101 14.5095 2.5133 14.5095H7.95447C8.10504 14.5095 8.23938 14.6041 8.29022 14.7457L8.47955 15.2733C8.53039 15.415 8.66473 15.5095 8.8153 15.5095H11.1847C11.3352 15.5095 11.4696 15.415 11.5204 15.2733L11.7098 14.7457C11.7607 14.604 11.895 14.5095 12.0456 14.5095H17.4867C17.839 14.5095 18.0864 14.9308 17.9715 15.3351H17.9716Z" fill="currentColor"/>
</svg>
