<svg width="20" height="20" viewBox="0 0 20 20" fill="none" xmlns="http://www.w3.org/2000/svg">
<path d="M10 2.5C5.59869 2.5 2.5 5.5498 2.5 9.75391V10.2461C2.5 14.4513 5.59869 17.5 10 17.5C14.4013 17.5 17.5 14.4502 17.5 10.2461V9.75391C17.5 5.54858 14.4014 2.5 10 2.5ZM6 7.5C6 6.94775 6.44769 6.5 7 6.5C7.55231 6.5 8 6.94775 8 7.5C8 8.05225 7.55231 8.5 7 8.5C6.44769 8.5 6 8.05225 6 7.5ZM10 14C8.2135 14 7.03418 13.0735 6.81146 11.5456C6.77002 11.2612 6.98205 11 7.26947 11H12.7305C13.0179 11 13.23 11.2612 13.1885 11.5456C12.9658 13.0735 11.7865 14 10 14ZM14.8491 8.31787C14.7485 8.43921 14.6169 8.5 14.4849 8.5C14.353 8.5 14.2214 8.43921 14.1208 8.31787C13.4846 7.55127 12.4514 7.55127 11.8152 8.31787C11.614 8.56067 11.2882 8.56067 11.087 8.31787C10.8857 8.07507 10.8857 7.68188 11.087 7.43921C12.124 6.18701 13.812 6.18701 14.849 7.43921C15.0503 7.68189 15.0503 8.07507 14.8491 8.31787Z" fill="currentColor"/>
</svg>
