<svg width="20" height="20" viewBox="0 0 20 20" fill="none" xmlns="http://www.w3.org/2000/svg">
<path d="M12.7276 9.41937C12.9404 10.0095 13.0275 10.6478 12.9694 11.296C12.9307 11.8376 12.7856 12.3793 12.5341 12.9017L12.2053 13.5885L11.5765 14.9041C11.5475 14.9621 11.5185 15.02 11.4701 15.0781C10.6769 16.6064 9.09056 17.4964 7.44615 17.4964C6.7884 17.4964 6.12097 17.3512 5.48258 17.0514C4.37985 16.5194 3.548 15.6005 3.15137 14.4494C2.74512 13.2982 2.81284 12.0505 3.33516 10.9575L4.30245 8.9551C4.57611 8.37903 4.95702 7.88869 5.40922 7.49215C5.55314 7.36594 5.77396 7.50512 5.72915 7.69122C5.51961 8.56155 5.51594 9.44819 5.69057 10.2913C5.71126 10.3912 5.70077 10.4944 5.65701 10.5866L5.08595 11.7893C4.77641 12.4278 4.73774 13.1435 4.96988 13.8012C5.20202 14.4687 5.68567 15.0007 6.31443 15.3006C7.39779 15.823 8.66494 15.5327 9.41946 14.6815C9.58388 14.5073 9.72894 14.2946 9.83539 14.0721L10.1546 13.4047L10.793 12.0699C10.8607 11.9247 10.9188 11.7796 10.9574 11.6345C11.1025 11.0929 11.0638 10.5222 10.88 10.0192V10.0095C10.764 9.71931 10.6092 9.43875 10.4061 9.20661C10.3771 8.99383 10.4157 8.77138 10.5125 8.5586L10.9823 7.57489C11.0587 7.41493 11.2683 7.36233 11.4029 7.4776C12.025 8.01006 12.4731 8.68128 12.7276 9.41937ZM16.8483 5.55021C16.4516 4.39919 15.6198 3.48031 14.5171 2.94825C12.3117 1.88425 9.67091 2.76452 8.51983 4.9022C8.49084 4.96029 8.45217 5.02795 8.42312 5.09561L7.80404 6.40155L7.46551 7.09797C7.214 7.62034 7.06889 8.15228 7.03022 8.69391C6.98187 9.24533 7.0399 9.78707 7.18502 10.3094C7.18502 10.319 7.19464 10.3287 7.19464 10.3384C7.43443 11.1775 7.91676 11.9409 8.59472 12.5278C8.72966 12.6446 8.94164 12.5918 9.01809 12.4305L9.48712 11.4411C9.50648 11.3927 9.53553 11.325 9.55484 11.2574C9.60325 11.1026 9.60325 10.9381 9.5742 10.7737C9.36142 10.5125 9.18726 10.2223 9.09055 9.90302L9.08087 9.89346C8.92613 9.40981 8.90676 8.88744 9.0422 8.37487C9.08087 8.21995 9.13891 8.07495 9.20662 7.92984L9.84507 6.58529L10.1642 5.9276C10.3094 5.62768 10.5028 5.37618 10.735 5.1634C11.2186 4.69912 11.8764 4.43793 12.5438 4.43793C12.9307 4.43793 13.3176 4.51527 13.6852 4.69912C14.314 4.99892 14.7976 5.53098 15.0297 6.19847C15.2619 6.85616 15.2232 7.57195 14.9137 8.21027L14.343 9.40354C14.299 9.49553 14.2888 9.59849 14.3099 9.69823C14.4278 10.2529 14.4638 10.8374 14.4107 11.4217C14.3888 11.787 14.3227 12.1523 14.2208 12.5134C14.171 12.69 14.3515 12.8534 14.5123 12.7652C15.0252 12.4838 15.4018 11.6585 15.6972 11.0445L16.6645 9.04224C17.1868 7.9492 17.2545 6.70134 16.8483 5.55021Z" fill="currentColor"/>
</svg>
