<svg width="20" height="20" viewBox="0 0 20 20" fill="none" xmlns="http://www.w3.org/2000/svg">
<path d="M9 14.5C9 14.7761 8.77614 15 8.5 15H6.5C4.01855 15 2 12.7568 2 10C2 7.24316 4.01855 5 6.5 5H8.5C8.77614 5 9 5.22386 9 5.5V6.5C9 6.77614 8.77614 7 8.5 7H6.5C5.12109 7 4 8.3457 4 10C4 11.6543 5.12109 13 6.5 13H8.5C8.77614 13 9 13.2239 9 13.5V14.5ZM18 10C18 7.24316 15.9815 5 13.5 5H11.5C11.2239 5 11 5.22386 11 5.5V6.5C11 6.77614 11.2239 7 11.5 7H13.5C14.8789 7 16 8.3457 16 10C16 11.6543 14.8789 13 13.5 13H11.5C11.2239 13 11 13.2239 11 13.5V14.5C11 14.7761 11.2239 15 11.5 15H13.5C15.9815 15 18 12.7568 18 10ZM14 10C14 9.44727 13.5527 9 13 9H7C6.44727 9 6 9.44727 6 10C6 10.5527 6.44727 11 7 11H13C13.5527 11 14 10.5527 14 10Z" fill="currentColor"/>
</svg>
