<svg width="20" height="20" viewBox="0 0 20 20" fill="none" xmlns="http://www.w3.org/2000/svg">
<path d="M17.4928 11.2219L17.4938 11.2217L15.2443 6.35107C14.957 5.72924 14.3439 5.34997 13.6724 5.32226L13.2799 4.41479C13.1705 4.16198 12.9324 4 12.6704 4H11.748C11.3424 4 11.0296 4.37927 11.0833 4.80615L11.2113 5.82544C10.8608 6.11597 10.6304 6.53491 10.5734 7H9.43287C9.37586 6.53491 9.14546 6.11597 8.79493 5.82544L8.92298 4.80615C8.97663 4.37927 8.66382 4 8.25819 4H7.33589C7.07381 4 6.83577 4.16199 6.72639 4.41479L6.33381 5.32226C5.66242 5.34997 5.0492 5.72924 4.76197 6.35107L2.51245 11.2217L2.51355 11.2219C2.34485 11.6146 2.25 12.0461 2.25 12.5C2.25 14.292 3.70801 15.75 5.5 15.75C7.12079 15.75 8.45673 14.5537 8.6994 13H11.3069C11.5496 14.5537 12.8855 15.75 14.5063 15.75C16.2983 15.75 17.7563 14.292 17.7563 12.5C17.7563 12.0461 17.6616 11.6146 17.4928 11.2219ZM5.5 14.25C4.53516 14.25 3.75 13.4648 3.75 12.5C3.75 11.5352 4.53516 10.75 5.5 10.75C6.46484 10.75 7.25 11.5352 7.25 12.5C7.25 13.4648 6.46484 14.25 5.5 14.25ZM14.5063 14.25C13.5415 14.25 12.7563 13.4648 12.7563 12.5C12.7563 11.5352 13.5415 10.75 14.5063 10.75C15.4712 10.75 16.2563 11.5352 16.2563 12.5C16.2563 13.4648 15.4712 14.25 14.5063 14.25Z" fill="currentColor"/>
</svg>
