<svg width="20" height="20" viewBox="0 0 20 20" fill="none" xmlns="http://www.w3.org/2000/svg">
<path d="M16 8V12H17.5C17.7761 12 18 12.2239 18 12.5V13.5C18 13.7761 17.7761 14 17.5 14H16V15.5C16 15.7761 15.7761 16 15.5 16H14V17.5C14 17.7761 13.7761 18 13.5 18H12.5C12.2239 18 12 17.7761 12 17.5V16H8V17.5C8 17.7761 7.77612 18 7.5 18H6.5C6.22388 18 6 17.7761 6 17.5V16H4.5C4.22388 16 4 15.7761 4 15.5V14H2.5C2.22388 14 2 13.7761 2 13.5V12.5C2 12.2239 2.22388 12 2.5 12H4V8H2.5C2.22388 8 2 7.77612 2 7.5V6.5C2 6.22388 2.22388 6 2.5 6H4V4.5C4 4.22388 4.22388 4 4.5 4H6V2.5C6 2.22388 6.22388 2 6.5 2H7.5C7.77612 2 8 2.22388 8 2.5V4H12V2.5C12 2.22388 12.2239 2 12.5 2H13.5C13.7761 2 14 2.22388 14 2.5V4H15.5C15.7761 4 16 4.22388 16 4.5V6H17.5C17.7761 6 18 6.22388 18 6.5V7.5C18 7.77612 17.7761 8 17.5 8H16ZM13.75 13.25V6.75C13.75 6.47386 13.5261 6.25 13.25 6.25H6.75C6.47386 6.25 6.25 6.47386 6.25 6.75V13.25C6.25 13.5261 6.47386 13.75 6.75 13.75H13.25C13.5261 13.75 13.75 13.5261 13.75 13.25ZM7.75 11.75V8.25C7.75 7.97386 7.97386 7.75 8.25 7.75H11.75C12.0261 7.75 12.25 7.97386 12.25 8.25V11.75C12.25 12.0261 12.0261 12.25 11.75 12.25H8.25C7.97386 12.25 7.75 12.0261 7.75 11.75Z" fill="currentColor"/>
</svg>
