<svg width="20" height="20" viewBox="0 0 20 20" fill="none" xmlns="http://www.w3.org/2000/svg">
<path d="M9.00001 11.5561V17.4428C9.00001 17.9382 8.40101 18.1864 8.05067 17.836L5.81434 15.5997L4.06062 17.3535C3.86531 17.5487 3.54878 17.5487 3.35347 17.3535L2.64656 16.6465C2.45125 16.4512 2.45125 16.1347 2.64656 15.9394L4.40028 14.1856L2.16401 11.9493C1.81367 11.599 2.06178 11 2.5572 11H8.44391C8.75104 11 9.00001 11.249 9.00001 11.5561ZM17.836 8.05066L15.5997 5.81433L17.3534 4.06055C17.5488 3.8653 17.5488 3.54871 17.3534 3.35346L16.6465 2.64649C16.4512 2.45124 16.1347 2.45124 15.9394 2.64649L14.1856 4.40027L11.9493 2.164C11.599 1.81366 11 2.06177 11 2.55719V8.44391C11 8.75104 11.249 9 11.5561 9H17.4428C17.9382 9 18.1863 8.401 17.836 8.05066Z" fill="currentColor"/>
</svg>
