<svg width="20" height="20" viewBox="0 0 20 20" fill="none" xmlns="http://www.w3.org/2000/svg">
<path d="M14 9.5V10.5C14 10.7761 13.7761 11 13.5 11H6.5C6.22388 11 6 10.7761 6 10.5V9.5C6 9.22382 6.22388 9 6.5 9H13.5C13.7761 9 14 9.22382 14 9.5ZM17.5 9.75385V10.2461C17.5 14.4502 14.4014 17.5 10.0001 17.5C5.59875 17.5 2.5 14.4513 2.5 10.2461V9.75384C2.5 5.54974 5.59869 2.5 10.0001 2.5C14.4014 2.5 17.5 5.54865 17.5 9.75385ZM15.5 9.75385C15.5 6.61133 13.2897 4.5 10.0001 4.5C6.71039 4.5 4.5 6.61133 4.5 9.75385V10.2461C4.5 13.3886 6.71033 15.5 10.0001 15.5C13.2898 15.5 15.5 13.3886 15.5 10.2461V9.75385Z" fill="currentColor"/>
</svg>
