<svg width="20" height="20" viewBox="0 0 20 20" fill="none" xmlns="http://www.w3.org/2000/svg">
<path d="M7.57811 16.1224C7.49754 15.808 7.74637 15.4999 8.07093 15.4999H11.9291C12.2536 15.4999 12.5025 15.808 12.4219 16.1224C12.1453 17.2019 11.1658 17.9999 10 17.9999C8.83417 17.9999 7.85475 17.2019 7.57811 16.1224ZM15 9.0799V6.99994C15 5.00468 13.1237 4.06012 10.2798 2.18541C10.1132 2.07557 9.88681 2.07557 9.72018 2.18541C6.87628 4.06012 5 5.00468 5 6.99994V9.0799C5 11.9599 3 11.7799 3 12.9199V13.4999C3 13.7799 3.21997 13.9999 3.5 13.9999H16.5C16.78 13.9999 17 13.7799 17 13.4999V12.9199C17 11.7799 15 11.9599 15 9.0799Z" fill="currentColor"/>
</svg>
