<svg width="20" height="20" viewBox="0 0 20 20" fill="none" xmlns="http://www.w3.org/2000/svg">
<path d="M2 10.0656V9.93436C2 8.81326 2.82632 8 4.00001 8C5.1737 8 6 8.81298 6 9.93436V10.0656C6 11.1867 5.1737 12 4.00001 12C2.82632 12 2 11.187 2 10.0656Z" fill="currentColor"/>
<path d="M8 9.93436V10.0656C8 11.187 8.82632 12 10 12C11.1737 12 12 11.1867 12 10.0656V9.93436C12 8.81298 11.1737 8 10 8C8.82632 8 8 8.81326 8 9.93436Z" fill="currentColor"/>
<path d="M14 9.93436V10.0656C14 11.187 14.8263 12 16 12C17.1737 12 18 11.1867 18 10.0656V9.93436C18 8.81298 17.1737 8 16 8C14.8263 8 14 8.81326 14 9.93436Z" fill="currentColor"/>
</svg>
