<svg width="20" height="20" viewBox="0 0 20 20" fill="none" xmlns="http://www.w3.org/2000/svg">
<path d="M7 14.4999V5.49992C7 5.22378 6.77614 4.99992 6.5 4.99992H5.5C5.22386 4.99992 5 5.22378 5 5.49992V14.4999C5 14.7761 5.22386 14.9999 5.5 14.9999H6.5C6.77614 14.9999 7 14.7761 7 14.4999Z" fill="currentColor"/>
<path d="M13.9999 4.64646L9 9.64638C8.80474 9.84164 8.80474 10.1582 9 10.3535L13.9999 15.3534C14.1952 15.5487 14.5118 15.5487 14.707 15.3534L15.414 14.6465C15.6093 14.4512 15.6093 14.1346 15.414 13.9393L11.4746 9.99992L15.414 6.0605C15.6093 5.86524 15.6093 5.54866 15.414 5.35339L14.707 4.64643C14.5118 4.45117 14.1952 4.4512 13.9999 4.64646Z" fill="currentColor"/>
</svg>
