<svg width="20" height="20" viewBox="0 0 20 20" fill="none" xmlns="http://www.w3.org/2000/svg">
<path d="M8.90918 7.0752H10.4238C11.2661 7.0752 11.832 7.58399 11.832 8.3418C11.832 9.09961 11.2661 9.6084 10.4238 9.6084H8.90918V7.0752Z" fill="currentColor"/>
<path fill-rule="evenodd" clip-rule="evenodd" d="M3.5 3H16.5C16.7761 3 17 3.22388 17 3.5V16.5C17 16.7761 16.7761 17 16.5 17H3.5C3.22388 17 3 16.7761 3 16.5V3.5C3 3.22388 3.22388 3 3.5 3ZM8.90918 11.1084H10.4238C12.1089 11.1084 13.332 9.94531 13.332 8.3418C13.332 6.73829 12.1089 5.5752 10.4238 5.5752H7.90918C7.63306 5.5752 7.40918 5.79908 7.40918 6.0752V13.2002C7.40918 13.4763 7.63306 13.7002 7.90918 13.7002H8.40918C8.6853 13.7002 8.90918 13.4763 8.90918 13.2002V11.1084Z" fill="currentColor"/>
</svg>
