<svg width="20" height="20" viewBox="0 0 20 20" fill="none" xmlns="http://www.w3.org/2000/svg">
<path d="M16.3535 5.06051L5.06058 16.3534C4.86532 16.5487 4.54874 16.5487 4.35347 16.3534L3.64651 15.6464C3.45125 15.4512 3.45125 15.1346 3.64651 14.9393L14.9394 3.64645C15.1347 3.45119 15.4513 3.45119 15.6465 3.64645L16.3535 4.35341C16.5487 4.54867 16.5487 4.86525 16.3535 5.06052L16.3535 5.06051ZM5.5 8.99993C6.9671 8.99993 8 7.98333 8 6.58195V6.4179C8 5.01604 6.9671 3.99992 5.5 3.99992C4.0329 3.99992 3 5.01653 3 6.4179V6.58195C3 7.98381 4.0329 8.99993 5.5 8.99993ZM14.5 10.9999C13.0329 10.9999 12 12.0165 12 13.4179V13.582C12 14.9838 13.0329 15.9999 14.5 15.9999C15.9671 15.9999 17 14.9833 17 13.582V13.4179C17 12.016 15.9671 10.9999 14.5 10.9999Z" fill="currentColor"/>
</svg>
