<svg width="20" height="20" viewBox="0 0 20 20" fill="none" xmlns="http://www.w3.org/2000/svg">
<path d="M3.49999 13H10.5V9.5C10.5 8.39697 11.397 7.5 12.5 7.5H17V3.48584C17 3.21753 16.7825 3 16.5141 3H3.48589C3.21752 3 2.99999 3.21753 2.99999 3.48584V12.5C2.99999 12.7761 3.22387 13 3.49999 13Z" fill="currentColor"/>
<path d="M10.5 14.5095H2.5133C2.16101 14.5095 1.91357 14.9308 2.02844 15.3351C2.31146 16.3314 3.08398 17 3.95209 17H10.5L10.5 14.5095Z" fill="currentColor"/>
<path fill-rule="evenodd" clip-rule="evenodd" d="M12.5 9H17.5C17.7761 9 18 9.22388 18 9.5V17.5C18 17.7761 17.7761 18 17.5 18H12.5C12.2239 18 12 17.7761 12 17.5V9.5C12 9.22388 12.2239 9 12.5 9ZM15.5 16.6001C15.7761 16.6001 16 16.3762 16 16.1001V15.8999C16 15.6238 15.7761 15.3999 15.5 15.3999H14.5C14.2239 15.3999 14 15.6238 14 15.8999V16.1001C14 16.3762 14.2239 16.6001 14.5 16.6001H15.5Z" fill="currentColor"/>
</svg>
