<svg width="20" height="20" viewBox="0 0 20 20" fill="none" xmlns="http://www.w3.org/2000/svg">
<path d="M10 2C6.14014 2 3 4.72656 3 8.07715V12C3 13.1046 3.89543 14 5 14H6.83331C7.10945 14 7.33331 13.7761 7.33331 13.5V10.2693C7.33331 9.99315 7.10945 9.76929 6.83331 9.76929H5V8.07715C5 5.8291 7.24316 4 10 4C12.7568 4 15 5.8291 15 8.07715V9.76929H13.1667C12.8905 9.76929 12.6667 9.99315 12.6667 10.2693V13.5C12.6667 13.7761 12.8905 14 13.1667 14H14.9033C14.5621 14.5875 13.4829 15.8628 10.492 15.9898C10.2219 16.0012 10 16.215 10 16.4854V17.487C10 17.7682 10.2367 18.001 10.5176 17.9903C15.8956 17.7863 16.9193 14.4221 16.9614 14.2744L16.9743 14H17V8.07715C17 4.72656 13.8599 2 10 2Z" fill="#404A52"/>
</svg>
