<svg width="20" height="20" viewBox="0 0 20 20" fill="none" xmlns="http://www.w3.org/2000/svg">
<path d="M14 10.25C14 10.5261 13.7761 10.75 13.5 10.75H10.75V13.5C10.75 13.7761 10.5261 14 10.25 14H9.75C9.47388 14 9.25 13.7761 9.25 13.5V10.75H6.5C6.22388 10.75 6 10.5261 6 10.25V9.75C6 9.47382 6.22388 9.25 6.5 9.25H9.25V6.5C9.25 6.22382 9.47388 6 9.75 6H10.25C10.5261 6 10.75 6.22382 10.75 6.5V9.25H13.5C13.7761 9.25 14 9.47382 14 9.75V10.25ZM2.5 9.75384V10.2461C2.5 14.4513 5.59869 17.5 10 17.5C14.4014 17.5 17.5 14.4502 17.5 10.2461V9.75384C17.5 5.54865 14.4014 2.5 10 2.5C5.59869 2.5 2.5 5.54974 2.5 9.75384Z" fill="currentColor"/>
</svg>
