<svg width="20" height="20" viewBox="0 0 20 20" fill="none" xmlns="http://www.w3.org/2000/svg">
<path d="M16.5 3H3.5C3.22388 3 3 3.22382 3 3.5V16.5C3 16.7761 3.22388 17 3.5 17H16.5C16.7761 17 17 16.7761 17 16.5V3.5C17 3.22382 16.7761 3 16.5 3ZM14 10.25C14 10.5261 13.7761 10.75 13.5 10.75H10.75V13.5C10.75 13.7761 10.5261 14 10.25 14H9.75C9.47388 14 9.25 13.7761 9.25 13.5V10.75H6.5C6.22388 10.75 6 10.5261 6 10.25V9.75C6 9.47382 6.22388 9.25 6.5 9.25H9.25V6.5C9.25 6.22382 9.47388 6 9.75 6H10.25C10.5261 6 10.75 6.22382 10.75 6.5V9.25H13.5C13.7761 9.25 14 9.47382 14 9.75V10.25Z" fill="currentColor"/>
</svg>
