<svg width="20" height="20" viewBox="0 0 20 20" fill="none" xmlns="http://www.w3.org/2000/svg">
<path d="M9.211 11.958L6.02698 8.77387C5.82508 8.57209 5.82508 8.24482 6.02698 8.04304L6.39221 7.67768C6.59411 7.4759 6.92126 7.4759 7.12317 7.67768L9.211 9.76563L15.5457 3.43095C15.6465 3.33007 15.6107 3.15354 15.4791 3.09827C13.3696 2.21183 11.3981 2 10 2C8.3275 2 5.83437 2.30201 3.26599 3.70112C3.10361 3.78958 3 3.96542 3 4.15033V11.7039C3 12.2844 3.27234 12.8339 3.74121 13.1993L9.69568 17.7665C9.8752 17.9042 10.1248 17.9042 10.3043 17.7665L16.2588 13.1993C16.7277 12.8339 17 12.2844 17 11.7039V4.65179C17 4.47361 16.7846 4.38438 16.6586 4.51037L9.211 11.958Z" fill="currentColor"/>
</svg>
