<svg width="20" height="20" viewBox="0 0 20 20" fill="none" xmlns="http://www.w3.org/2000/svg">
<path d="M13.4756 12.75L14.1329 17.4304C14.1751 17.7315 13.9415 18 13.6378 18H6.36224C6.05847 18 5.82489 17.7315 5.86712 17.4304L6.52435 12.75H13.4756ZM17.5 8H2.5C2.21997 8 2 8.21997 2 8.5V15.5C2 15.78 2.21997 16 2.5 16H4.54999L5.01312 12.75H4C3.58594 12.75 3.25 12.4141 3.25 12C3.25 11.5859 3.58594 11.25 4 11.25H16C16.4141 11.25 16.75 11.5859 16.75 12C16.75 12.4141 16.4141 12.75 16 12.75H14.9869L15.45 16H17.5C17.78 16 18 15.78 18 15.5V8.5C18 8.21997 17.78 8 17.5 8ZM14 2.5C14 2.22386 13.7761 2 13.5 2H6.5C6.22386 2 6 2.22386 6 2.5V6.50436H14V2.5Z" fill="currentColor"/>
</svg>
