<svg width="20" height="20" viewBox="0 0 20 20" fill="none" xmlns="http://www.w3.org/2000/svg">
<path d="M6 9.86875C6 7.62656 7.65263 6 10 6C12.3474 6 14 7.62591 14 9.86875V10.1313C14 12.3734 12.3474 14 10 14C7.65263 14 6 12.374 6 10.1313V9.86875Z" fill="currentColor"/>
<path fill-rule="evenodd" clip-rule="evenodd" d="M2.5 9.75391C2.5 5.5498 5.59869 2.5 10 2.5C14.4014 2.5 17.5 5.54858 17.5 9.75391V10.2461C17.5 14.4502 14.4013 17.5 10 17.5C5.59869 17.5 2.5 14.4512 2.5 10.2461V9.75391ZM10 15.5C13.29 15.5 15.5 13.3887 15.5 10.2461V9.7539C15.5 6.61132 13.29 4.49999 10 4.49999C6.70996 4.49999 4.5 6.61132 4.5 9.7539V10.2461C4.5 13.3887 6.70996 15.5 10 15.5Z" fill="currentColor"/>
</svg>
