<svg width="20" height="20" viewBox="0 0 20 20" fill="none" xmlns="http://www.w3.org/2000/svg">
<path d="M2 6.16995V5.16995C2 4.89383 2.22388 4.66995 2.5 4.66995H4.92999C5.63379 4.66995 6.28515 5.04178 6.64294 5.64798L7.14001 6.49002L5.97998 8.45999L4.92999 6.66995H2.5C2.22388 6.66995 2 6.44607 2 6.16995ZM13.7734 11.0037C13.4407 10.787 13 11.0257 13 11.4226V13.18H11.07L10.04 11.43L8.88001 13.3999L9.34998 14.19C9.71003 14.8001 10.37 15.18 11.07 15.18H13V17.0042C13 17.4154 13.4691 17.6509 13.7991 17.4053L17.7985 14.4284C18.0777 14.2205 18.0645 13.7984 17.7728 13.6084L13.7734 11.0037ZM11.07 6.70999H13V8.4639C13 8.86087 13.4407 9.0994 13.7734 8.88272L17.7728 6.27798C18.0645 6.08804 18.0777 5.6658 17.7985 5.45803L13.7991 2.48123C13.4691 2.23562 13 2.47098 13 2.88223V4.70999H11.0626C10.3584 4.70999 9.70679 5.08279 9.34997 5.68997L8.01 7.97L6.84997 9.93997L4.92999 13.21H2.5C2.22388 13.21 2 13.4339 2 13.71V14.71C2 14.9861 2.22388 15.21 2.5 15.21H4.92999C5.63958 15.21 6.29602 14.8338 6.6549 14.2217L8.01 11.9099L9.16997 9.94998L11.07 6.70999Z" fill="currentColor"/>
</svg>
