<svg width="20" height="20" viewBox="0 0 20 20" fill="none" xmlns="http://www.w3.org/2000/svg">
<path d="M16.5 3H3.5C3.22388 3 3 3.22388 3 3.5V16.5C3 16.7761 3.22388 17 3.5 17H16.5C16.7761 17 17 16.7761 17 16.5V3.5C17 3.22388 16.7761 3 16.5 3ZM9.52429 6.58594H10.4757C10.7322 6.58594 10.934 6.8147 10.9125 7.0813L10.6913 9.82349C10.6722 10.0601 10.4824 10.2422 10.2545 10.2422H9.74549C9.51765 10.2422 9.32783 10.0601 9.30872 9.82349L9.08753 7.0813C9.06605 6.8147 9.26776 6.58594 9.52429 6.58594ZM10 13.4141C9.44769 13.4141 9 12.9663 9 12.4141C9 11.8618 9.44769 11.4141 10 11.4141C10.5523 11.4141 11 11.8618 11 12.4141C11 12.9663 10.5523 13.4141 10 13.4141Z" fill="currentColor"/>
</svg>
