<svg width="20" height="20" viewBox="0 0 20 20" fill="none" xmlns="http://www.w3.org/2000/svg">
<path d="M12.6924 3H7.30763C7.17502 3 7.04784 3.05268 6.95407 3.14645L3.14644 6.95414C3.05267 7.04791 3 7.17508 3 7.30769V12.6923C3 12.8249 3.05268 12.9521 3.14644 13.0459L6.95407 16.8535C7.04784 16.9473 7.17502 17 7.30763 17H12.6924C12.825 17 12.9522 16.9473 13.0459 16.8535L16.8535 13.0459C16.9473 12.9521 17 12.8249 17 12.6923V7.30769C17 7.17508 16.9473 7.04791 16.8535 6.95414L13.0459 3.14645C12.9522 3.05268 12.825 3 12.6924 3ZM9.5243 6.58594H10.4757C10.7323 6.58594 10.934 6.8147 10.9125 7.0813L10.6913 9.82349C10.6722 10.0601 10.4824 10.2422 10.2545 10.2422H9.7455C9.51766 10.2422 9.32784 10.0601 9.30873 9.82349L9.08754 7.0813C9.06606 6.8147 9.26777 6.58594 9.5243 6.58594ZM10 13.4141C9.4477 13.4141 9.00001 12.9663 9.00001 12.4141C9.00001 11.8618 9.4477 11.4141 10 11.4141C10.5523 11.4141 11 11.8618 11 12.4141C11 12.9663 10.5523 13.4141 10 13.4141Z" fill="currentColor"/>
</svg>
