<svg width="20" height="20" viewBox="0 0 20 20" fill="none" xmlns="http://www.w3.org/2000/svg">
<path d="M17 14V16.5C17 16.7761 16.7761 17 16.5 17H3.5C3.22386 17 3 16.7761 3 16.5V14C3 13.7239 3.22386 13.5 3.5 13.5H16.5C16.7761 13.5 17 13.7239 17 14ZM16.5 8.25H3.5C3.22386 8.25 3 8.47386 3 8.75V11.25C3 11.5261 3.22386 11.75 3.5 11.75H16.5C16.7761 11.75 17 11.5261 17 11.25V8.75C17 8.47386 16.7761 8.25 16.5 8.25ZM16.5 3H3.5C3.22386 3 3 3.22386 3 3.5V6C3 6.27614 3.22386 6.5 3.5 6.5H16.5C16.7761 6.5 17 6.27614 17 6V3.5C17 3.22386 16.7761 3 16.5 3Z" fill="currentColor"/>
</svg>
