<svg width="20" height="20" viewBox="0 0 20 20" fill="none" xmlns="http://www.w3.org/2000/svg">
<path d="M5.75 6.5V3.5C5.75 3.22388 5.52612 3 5.25 3H4.75C4.47388 3 4.25 3.22388 4.25 3.5V6.5H5.75Z" fill="currentColor"/>
<path d="M8.75 6.5V3.5C8.75 3.22388 8.52612 3 8.25 3H7.75C7.47388 3 7.25 3.22388 7.25 3.5V6.5H8.75Z" fill="currentColor"/>
<path d="M14.75 3.5V6.5H13.25V3.5C13.25 3.22388 13.4739 3 13.75 3H14.25C14.5261 3 14.75 3.22388 14.75 3.5Z" fill="currentColor"/>
<path d="M4.25 15.5C4.25 15.7761 4.47388 16 4.75 16H5.25C5.52612 16 5.75 15.7761 5.75 15.5V11.25H4.25V15.5Z" fill="currentColor"/>
<path d="M11.75 3.5V6.5H10.25V3.5C10.25 3.22388 10.4739 3 10.75 3H11.25C11.5261 3 11.75 3.22388 11.75 3.5Z" fill="currentColor"/>
<path d="M7.25 13.5C7.25 13.7761 7.47388 14 7.75 14H8.25C8.52612 14 8.75 13.7761 8.75 13.5V11.25H7.25V13.5Z" fill="currentColor"/>
<path d="M13.75 16C13.4739 16 13.25 15.7761 13.25 15.5V11.25H14.75V15.5C14.75 15.7761 14.5261 16 14.25 16H13.75Z" fill="currentColor"/>
<path d="M16.5 8H2.5C2.22388 8 2 8.22388 2 8.5V9.5C2 9.77612 2.22388 10 2.5 10H16.5C16.7761 10 17 9.77612 17 9.5V8.5C17 8.22388 16.7761 8 16.5 8Z" fill="currentColor"/>
<path d="M10.75 14C10.4739 14 10.25 13.7761 10.25 13.5V11.25H11.75V13.5C11.75 13.7761 11.5261 14 11.25 14H10.75Z" fill="currentColor"/>
</svg>
