<svg width="20" height="20" viewBox="0 0 20 20" fill="none" xmlns="http://www.w3.org/2000/svg">
<path d="M16.5 17H3.5C3.22386 17 3 16.7761 3 16.5V3.5C3 3.22386 3.22386 3 3.5 3H16.5C16.7761 3 17 3.22386 17 3.5V16.5C17 16.7761 16.7761 17 16.5 17ZM6.75 8.5V5.5C6.75 5.22386 6.52614 5 6.25 5H5.75C5.47386 5 5.25 5.22386 5.25 5.5V8.5C5.25 8.77614 5.47386 9 5.75 9H6.25C6.52614 9 6.75 8.77614 6.75 8.5ZM9.75 8.5V5.5C9.75 5.22386 9.52614 5 9.25 5H8.75C8.47386 5 8.25 5.22386 8.25 5.5V8.5C8.25 8.77614 8.47386 9 8.75 9H9.25C9.52614 9 9.75 8.77614 9.75 8.5ZM12.75 8.5V5.5C12.75 5.22386 12.5261 5 12.25 5H11.75C11.4739 5 11.25 5.22386 11.25 5.5V8.5C11.25 8.77614 11.4739 9 11.75 9H12.25C12.5261 9 12.75 8.77614 12.75 8.5Z" fill="currentColor"/>
</svg>
