<svg width="20" height="20" viewBox="0 0 20 20" fill="none" xmlns="http://www.w3.org/2000/svg">
<path d="M17.5 3H2.5C2.22388 3 2 3.22388 2 3.5V8.5C2 8.77612 2.22388 9 2.5 9H17.5C17.7761 9 18 8.77612 18 8.5V3.5C18 3.22388 17.7761 3 17.5 3ZM15 7C14.4477 7 14 6.55225 14 6C14 5.44775 14.4477 5 15 5C15.5523 5 16 5.44775 16 6C16 6.55225 15.5523 7 15 7ZM17.5 11H2.5C2.22388 11 2 11.2239 2 11.5V16.5C2 16.7761 2.22388 17 2.5 17H17.5C17.7761 17 18 16.7761 18 16.5V11.5C18 11.2239 17.7761 11 17.5 11ZM15 15C14.4477 15 14 14.5522 14 14C14 13.4478 14.4477 13 15 13C15.5523 13 16 13.4478 16 14C16 14.5522 15.5523 15 15 15Z" fill="currentColor"/>
</svg>
