<svg width="32" height="32" viewBox="0 0 32 32" fill="none" xmlns="http://www.w3.org/2000/svg">
<path d="M30.7692 16.56C30.8184 15.4892 30.0553 15.1877 29.7476 15.1877H18.6461C17.6799 15.1877 17.5261 16.2031 17.5261 16.3077V28.2215H30.7692V16.56ZM23.1261 25.1138C23.1261 25.3846 23.0215 25.6431 22.8307 25.8338C22.6399 26.0246 22.3815 26.1292 22.1107 26.1292H21.0953C20.8246 26.1292 20.5661 26.0246 20.3753 25.8338C20.1846 25.6431 20.0799 25.3846 20.0799 25.1138V24.0923C20.0799 23.5323 20.5353 23.0708 21.1015 23.0708H22.1169C22.3876 23.0708 22.6461 23.1754 22.8369 23.3661C23.0276 23.5569 23.1323 23.8154 23.1323 24.0861V25.1077H23.1261V25.1138ZM23.1261 19.92C23.1261 20.1908 23.0215 20.4492 22.8307 20.64C22.6399 20.8308 22.3815 20.9354 22.1107 20.9354H21.0953C20.8246 20.9354 20.5661 20.8308 20.3753 20.64C20.1846 20.4492 20.0799 20.1908 20.0799 19.92V18.8985C20.0799 18.3385 20.5353 17.8769 21.1015 17.8769H22.1169C22.3876 17.8769 22.6461 17.9815 22.8369 18.1723C23.0276 18.3631 23.1323 18.6215 23.1323 18.8923V19.9138H23.1261V19.92ZM28.2215 25.1138C28.2215 25.3846 28.1169 25.6431 27.9261 25.8338C27.7353 26.0246 27.4769 26.1292 27.2061 26.1292H26.1907C25.9199 26.1292 25.6615 26.0246 25.4707 25.8338C25.2799 25.6431 25.1753 25.3846 25.1753 25.1138V24.0923C25.1753 23.5323 25.6307 23.0708 26.1969 23.0708H27.2123C27.483 23.0708 27.7415 23.1754 27.9323 23.3661C28.123 23.5569 28.2276 23.8154 28.2276 24.0861V25.1077H28.2215V25.1138ZM28.2215 19.92C28.2215 20.1908 28.1169 20.4492 27.9261 20.64C27.7353 20.8308 27.4769 20.9354 27.2061 20.9354H26.1907C25.9199 20.9354 25.6615 20.8308 25.4707 20.64C25.2799 20.4492 25.1753 20.1908 25.1753 19.92V18.8985C25.1753 18.3385 25.6307 17.8769 26.1969 17.8769H27.2123C27.483 17.8769 27.7415 17.9815 27.9323 18.1723C28.123 18.3631 28.2276 18.6215 28.2276 18.8923V19.9138H28.2215V19.92ZM20.5846 11.0585V5.15077C20.6338 4.08 19.8707 3.77846 19.563 3.77846H2.35071C1.38456 3.77846 1.23071 4.8 1.23071 4.89846V28.2215H14.4738V13.2985C14.4738 13.2985 14.4738 12.0738 15.5938 12.0738H19.6184C20.1784 12.0738 20.5846 11.4646 20.5846 11.0585ZM6.83071 24.6092C6.83071 24.88 6.7261 25.1385 6.53533 25.3292C6.34456 25.52 6.0861 25.6246 5.81533 25.6246H4.79379C4.52302 25.6246 4.26456 25.52 4.07379 25.3292C3.88302 25.1385 3.77841 24.88 3.77841 24.6092V23.5877C3.77841 23.0277 4.23379 22.5661 4.79994 22.5661H5.82148C6.09225 22.5661 6.35071 22.6708 6.54148 22.8615C6.73225 23.0523 6.83687 23.3108 6.83687 23.5815V24.6031H6.83071V24.6092ZM6.83071 19.36C6.83071 19.6308 6.7261 19.8892 6.53533 20.08C6.34456 20.2708 6.0861 20.3754 5.81533 20.3754H4.79379C4.52302 20.3754 4.26456 20.2708 4.07379 20.08C3.88302 19.8892 3.77841 19.6308 3.77841 19.36V18.3446C3.77841 17.7846 4.23379 17.3231 4.79994 17.3231H5.82148C6.09225 17.3231 6.35071 17.4277 6.54148 17.6185C6.73225 17.8092 6.83687 18.0677 6.83687 18.3385V19.3538H6.83071V19.36ZM6.83071 14.1662C6.83071 14.4369 6.7261 14.6954 6.53533 14.8862C6.34456 15.0769 6.0861 15.1815 5.81533 15.1815H4.79379C4.52302 15.1815 4.26456 15.0769 4.07379 14.8862C3.88302 14.6954 3.77841 14.4369 3.77841 14.1662V13.1446C3.77841 12.5846 4.23379 12.1231 4.79994 12.1231H5.82148C6.09225 12.1231 6.35071 12.2277 6.54148 12.4185C6.73225 12.6092 6.83687 12.8677 6.83687 13.1385V14.16H6.83071V14.1662ZM6.83071 8.9723C6.83071 9.24307 6.7261 9.50153 6.53533 9.6923C6.34456 9.88307 6.0861 9.98769 5.81533 9.98769H4.79379C4.52302 9.98769 4.26456 9.88307 4.07379 9.6923C3.88302 9.50153 3.77841 9.24307 3.77841 8.9723V7.95692C3.77841 7.39692 4.23379 6.93538 4.79994 6.93538H5.82148C6.09225 6.93538 6.35071 7.04 6.54148 7.23077C6.73225 7.42153 6.83687 7.68 6.83687 7.95077V8.96615H6.83071V8.9723ZM12.4369 24.6092C12.4369 24.88 12.3323 25.1385 12.1415 25.3292C11.9507 25.52 11.6923 25.6246 11.4215 25.6246H10.3999C10.1292 25.6246 9.87071 25.52 9.67994 25.3292C9.48917 25.1385 9.38456 24.88 9.38456 24.6092V23.5877C9.38456 23.0277 9.83994 22.5661 10.3999 22.5661H11.4215C11.6923 22.5661 11.9507 22.6708 12.1415 22.8615C12.3323 23.0523 12.4369 23.3108 12.4369 23.5815V24.6092ZM12.4369 19.36C12.4369 19.6308 12.3323 19.8892 12.1415 20.08C11.9507 20.2708 11.6923 20.3754 11.4215 20.3754H10.3999C10.1292 20.3754 9.87071 20.2708 9.67994 20.08C9.48917 19.8892 9.38456 19.6308 9.38456 19.36V18.3446C9.38456 17.7846 9.83994 17.3231 10.3999 17.3231H11.4215C11.6923 17.3231 11.9507 17.4277 12.1415 17.6185C12.3323 17.8092 12.4369 18.0677 12.4369 18.3385V19.36ZM12.4369 14.1662C12.4369 14.4369 12.3323 14.6954 12.1415 14.8862C11.9507 15.0769 11.6923 15.1815 11.4215 15.1815H10.3999C10.1292 15.1815 9.87071 15.0769 9.67994 14.8862C9.48917 14.6954 9.38456 14.4369 9.38456 14.1662V13.1446C9.38456 12.5846 9.83994 12.1231 10.3999 12.1231H11.4215C11.6923 12.1231 11.9507 12.2277 12.1415 12.4185C12.3323 12.6092 12.4369 12.8677 12.4369 13.1385V14.1662ZM12.4369 8.9723C12.4369 9.24307 12.3323 9.50153 12.1415 9.6923C11.9507 9.88307 11.6923 9.98769 11.4215 9.98769H10.3999C10.1292 9.98769 9.87071 9.88307 9.67994 9.6923C9.48917 9.50153 9.38456 9.24307 9.38456 8.9723V7.95692C9.38456 7.39692 9.83994 6.93538 10.3999 6.93538H11.4215C11.6923 6.93538 11.9507 7.04 12.1415 7.23077C12.3323 7.42153 12.4369 7.68 12.4369 7.95077V8.9723ZM18.0369 8.9723C18.0369 9.24307 17.9323 9.50153 17.7415 9.6923C17.5507 9.88307 17.2923 9.98769 17.0215 9.98769H15.9999C15.7292 9.98769 15.4707 9.88307 15.2799 9.6923C15.0892 9.50153 14.9846 9.24307 14.9846 8.9723V7.95692C14.9846 7.39692 15.4399 6.93538 15.9999 6.93538H17.0215C17.2923 6.93538 17.5507 7.04 17.7415 7.23077C17.9323 7.42153 18.0369 7.68 18.0369 7.95077V8.9723Z" fill="#747474"/>
</svg>
