<svg width="32" height="32" viewBox="0 0 32 32" fill="none" xmlns="http://www.w3.org/2000/svg">
<path d="M15.138 28.131C15.3732 28.1294 15.5983 28.0348 15.764 27.8677C15.9298 27.7007 16.0228 27.4749 16.0228 27.2395L16.072 16.9281C16.0791 16.703 16.0037 16.4831 15.8599 16.3098C15.7162 16.1365 15.514 16.0218 15.2916 15.9874H4.79048C4.56334 15.9792 4.3413 16.0559 4.16753 16.2025C3.99377 16.3491 3.88071 16.5552 3.85035 16.7806V18.8096C3.84221 19.0369 3.91885 19.2591 4.06535 19.433C4.21186 19.6069 4.41776 19.72 4.643 19.7504H8.03482C8.20447 19.755 8.36589 19.8245 8.48589 19.9446C8.60589 20.0647 8.67536 20.2262 8.68001 20.396C8.68465 20.5593 8.63008 20.7187 8.52639 20.8448L1.61986 27.7806C1.43636 27.9624 1.32911 28.2074 1.31997 28.4656C1.31084 28.7238 1.40051 28.9758 1.5707 29.1702L2.91023 30.5044C3.10702 30.6664 3.35618 30.7507 3.6108 30.7417C3.86542 30.7326 4.10796 30.6308 4.29276 30.4552L11.2792 23.4703C11.3366 23.4099 11.4057 23.3617 11.4823 23.3288C11.5588 23.2959 11.6413 23.279 11.7247 23.279C11.808 23.279 11.8905 23.2959 11.9671 23.3288C12.0436 23.3617 12.1127 23.4099 12.1701 23.4703C12.2329 23.5249 12.2797 23.5954 12.3057 23.6744C12.3316 23.7534 12.3358 23.838 12.3176 23.9192V27.1841C12.3107 27.4118 12.3876 27.634 12.5337 27.8086C12.6799 27.9832 12.8851 28.098 13.1103 28.131H15.138Z" fill="#747474"/>
<path d="M18.8063 29.7174C21.7202 29.2009 24.4115 27.819 26.5301 25.7515C27.9501 24.4393 29.0908 22.8537 29.8838 21.0897C30.6768 19.3257 31.1057 17.4197 31.1449 15.4859C31.1841 13.5521 30.8327 11.6303 30.1118 9.83558C29.3909 8.04091 28.3154 6.41035 26.9496 5.04162C25.5839 3.67288 23.956 2.59415 22.1636 1.87006C20.3712 1.14598 18.4512 0.791449 16.5186 0.827723C14.586 0.863996 12.6806 1.29032 10.9167 2.08116C9.15267 2.87199 7.56639 4.01105 6.25289 5.43008C4.15727 7.51228 2.76319 10.197 2.26504 13.1098H5.18373C5.62282 11.0963 6.59608 9.23838 8.00111 7.73154C9.40614 6.2247 11.191 5.1246 13.168 4.54697C15.145 3.96934 17.241 3.93552 19.2355 4.44907C21.2301 4.96262 23.0495 6.00456 24.5024 7.4653C25.9584 8.91724 26.9975 10.7342 27.5111 12.7259C28.0246 14.7176 27.9936 16.8108 27.4214 18.7864C26.8491 20.762 25.7567 22.5473 24.2583 23.9555C22.76 25.3637 20.9109 26.3429 18.9046 26.7906L18.8063 29.7174ZM18.9538 23.8147C20.289 23.4206 21.4998 22.6877 22.4685 21.6872C24.0843 20.0712 24.9924 17.879 24.9929 15.593C24.9935 13.3069 24.0865 11.1143 22.4716 9.49744C20.8566 7.88056 18.6659 6.97189 16.3814 6.97131C14.0969 6.97074 11.9057 7.87831 10.2899 9.49436C9.29597 10.4888 8.56346 11.714 8.15772 13.0606H11.23C11.505 12.4723 11.8792 11.9356 12.336 11.4742C13.4307 10.4895 14.8614 9.96278 16.3329 10.0028C17.8043 10.0427 19.2043 10.6464 20.244 11.6891C21.2837 12.7319 21.8837 14.1341 21.9204 15.6067C21.957 17.0792 21.4273 18.5096 20.4408 19.6028C20.0001 20.0371 19.4994 20.4057 18.9538 20.6973V23.8147Z" fill="#747474"/>
</svg>
