<svg width="32" height="32" viewBox="0 0 32 32" fill="none" xmlns="http://www.w3.org/2000/svg">
<path d="M25.7353 24.6181H6.2584C5.79687 24.6181 5.38456 25.0362 5.38456 25.4974V25.5404C5.38456 27.0654 6.63379 28.3075 8.15379 28.3075H23.8461C25.3722 28.3075 26.6153 27.0654 26.6153 25.5404V25.4974C26.6153 25.0362 26.1969 24.6181 25.7353 24.6181Z" fill="#747474"/>
<path d="M27.9999 5.71012C26.4738 5.71012 25.2307 6.95836 25.2307 8.47714C25.2307 9.30725 25.5999 10.0882 26.1969 10.5985C25.4153 12.4002 23.6122 13.6423 21.4892 13.55C19.0461 13.4147 17.0584 11.4286 16.923 8.98136C16.923 8.56323 16.923 8.19429 17.0153 7.83151C18.0307 7.41953 18.7692 6.448 18.7692 5.24895C18.7692 3.73017 17.5199 2.48193 15.9999 2.48193C14.4799 2.48193 13.2307 3.73017 13.2307 5.24895C13.2307 6.3988 13.9692 7.41338 14.9846 7.83151C15.0769 8.20044 15.0769 8.56938 15.0769 8.98136C14.9415 11.4225 12.9538 13.4086 10.5046 13.55C8.38148 13.6853 6.53533 12.4002 5.79687 10.5985C6.39379 10.0943 6.76917 9.30725 6.76917 8.47714C6.76917 6.95836 5.51994 5.71012 3.99994 5.71012C2.47994 5.71012 1.23071 6.95836 1.23071 8.47714C1.23071 9.99593 2.47994 11.2442 3.99994 11.2442L5.29225 21.1132C5.34148 21.5313 5.70456 21.8511 6.1661 21.8511H25.8276C26.2461 21.8511 26.6092 21.5252 26.7076 21.1132L27.9999 11.2442C29.5261 11.2442 30.7692 9.99593 30.7692 8.47714C30.7692 6.95836 29.5261 5.71012 27.9999 5.71012Z" fill="#747474"/>
</svg>
