<svg width="20" height="20" viewBox="0 0 20 20" fill="none" xmlns="http://www.w3.org/2000/svg">
<path d="M3.26605 3.70105C3.10364 3.78949 3 3.96539 3 4.15033V11.7039C3 12.2844 3.27234 12.8339 3.74121 13.1993L9.69568 17.7665C9.87518 17.9042 10.1248 17.9042 10.3043 17.7665L16.2588 13.1993C16.7277 12.8339 17 12.2844 17 11.7039V4.15033C17 3.96539 16.8964 3.78949 16.7339 3.70105C14.1656 2.302 11.6725 2 10 2C8.32751 2 5.83441 2.302 3.26605 3.70105ZM14.8043 11.7943L10.3043 15.246C10.1248 15.3837 9.8752 15.3837 9.69569 15.246L5.19569 11.7943C5.07233 11.6997 5 11.5531 5 11.3976V5.39289C5 5.19655 5.11478 5.01739 5.2958 4.94134C7.10084 4.18296 8.79368 4 10 4C11.2063 4 12.8992 4.18296 14.7042 4.94134C14.8852 5.01739 15 5.19655 15 5.39289V11.3976C15 11.5531 14.9277 11.6997 14.8043 11.7943Z" fill="currentColor"/>
</svg>
