<svg width="20" height="20" viewBox="0 0 20 20" fill="none" xmlns="http://www.w3.org/2000/svg">
<path d="M3.9663 16.2247C3.3496 16.2247 2.56542 15.8063 2.32568 14.6149C1.94726 12.733 4.31543 10.7906 5.33252 10.0543C5.40186 9.06505 5.41846 8.18224 5.41455 7.41515C4.60986 7.73937 3.50781 7.96495 2 7.96495V6.46495C3.8042 6.46495 4.81836 6.11095 5.38037 5.75841C5.33935 4.33116 5.33642 3.72911 5.87646 3.3878C6.00878 3.30479 6.36767 3.13438 6.82958 3.3712C7.45116 3.68858 7.74999 4.47179 7.55663 5.27599C7.49804 5.51915 7.33642 5.97326 6.89989 6.44054C6.91796 7.18517 6.92772 8.07628 6.88719 9.10411C7.79149 8.65587 8.72508 8.40977 9.33299 8.81651C9.38231 8.84971 9.44676 8.89903 9.51268 8.96837C10.0693 7.44689 10.6846 6.62413 11.3535 6.51329C12.7432 6.28526 13.1728 7.96886 13.4531 9.08556C13.4726 9.16271 13.4941 9.24865 13.5171 9.33702C14.2925 8.02306 15.2187 6.82628 16.3179 7.13878C17.6577 7.52403 17.8359 10.048 17.7495 12.0978L16.2505 12.0348C16.3091 10.6363 16.1479 9.1417 15.9033 8.65831C15.7182 8.8004 15.312 9.21056 14.6518 10.3712C14.46 10.7086 14.0039 11.5001 13.2451 11.3937C12.4599 11.2867 12.2461 10.4361 11.9985 9.45128C11.9082 9.09239 11.7368 8.41026 11.5674 8.09874C11.1269 8.70226 10.4463 10.7809 10.0215 12.8775C9.9619 13.1734 9.73045 13.4044 9.43407 13.464C9.13671 13.5211 8.83495 13.399 8.666 13.1495C8.58983 13.0377 7.96678 12.0485 8.25731 10.1617C7.8994 10.2682 7.36034 10.524 6.76952 10.8932C6.72313 11.3986 6.66259 11.9279 6.58544 12.4811C6.20605 15.1984 4.95898 16.1959 4.00683 16.2242L3.9663 16.2247V16.2247ZM5.11474 12.1656C4.9873 12.2862 4.86279 12.4108 4.74316 12.5387C4.0708 13.2579 3.71679 13.9235 3.79638 14.319C3.85449 14.608 3.95361 14.7159 3.97753 14.7291C4.1372 14.7247 4.83983 14.1368 5.10009 12.2731L5.11474 12.1656V12.1656Z" fill="currentColor"/>
</svg>
