<svg width="20" height="20" viewBox="0 0 20 20" fill="none" xmlns="http://www.w3.org/2000/svg">
<path d="M2 7.25V6.75C2 6.47388 2.22388 6.25 2.5 6.25H4.09515C4.37066 5.20789 5.28033 4.5 6.5 4.5C7.9671 4.5 9 5.51611 9 6.91797V7.08203C9 8.4834 7.9671 9.5 6.5 9.5C5.28033 9.5 4.37054 8.79224 4.09509 7.75H2.5C2.22388 7.75 2 7.52612 2 7.25ZM17.5 6.25H10.44C10.48 6.45996 10.5 6.68994 10.5 6.91992V7.07995C10.5 7.31005 10.48 7.54003 10.44 7.74999H17.5C17.7761 7.74999 18 7.52611 18 7.24999V6.74999C18 6.47387 17.7761 6.25 17.5 6.25ZM9.56 12.25H2.5C2.22388 12.25 2 12.4739 2 12.75V13.25C2 13.5261 2.22388 13.75 2.5 13.75H9.56C9.52002 13.54 9.5 13.3101 9.5 13.08V12.9199C9.5 12.6899 9.52002 12.46 9.56 12.25ZM17.5 12.25H15.9049C15.6295 11.2078 14.7197 10.5 13.5 10.5C12.0329 10.5 11 11.5166 11 12.918V13.082C11 14.4838 12.0329 15.5 13.5 15.5C14.7196 15.5 15.6293 14.7921 15.9049 13.75H17.5C17.7761 13.75 18 13.5261 18 13.25V12.75C18 12.4739 17.7761 12.25 17.5 12.25Z" fill="currentColor"/>
</svg>
