<svg width="20" height="20" viewBox="0 0 20 20" fill="none" xmlns="http://www.w3.org/2000/svg">
<path d="M13.3112 2.47027L16.7681 5.22005C17.1385 5.51471 16.9301 6.11135 16.4568 6.11135H13.9999V15.5C13.9999 15.7762 13.776 16 13.4999 16H12.4999C12.2238 16 11.9999 15.7762 11.9999 15.5V6.11135H9.54298C9.06964 6.11135 8.86128 5.51471 9.23172 5.22005L12.6886 2.47027C12.8708 2.32534 13.129 2.32534 13.3112 2.47027Z" fill="currentColor"/>
<path d="M5.49989 3H6.49989C6.77603 3 6.99989 3.22386 6.99989 3.5V12.8887H9.4568C9.93014 12.8887 10.1385 13.4853 9.76806 13.78L6.31115 16.5297C6.12895 16.6747 5.87083 16.6747 5.68863 16.5297L2.23172 13.78C1.86129 13.4853 2.06964 12.8887 2.54298 12.8887H4.99989V3.5C4.99989 3.22386 5.22375 3 5.49989 3Z" fill="currentColor"/>
</svg>
