<svg width="20" height="20" viewBox="0 0 20 20" fill="none" xmlns="http://www.w3.org/2000/svg">
<path d="M16.0253 16.9004C15.8798 16.9004 15.7494 16.8037 15.6937 16.6533L15.3168 15.6484H12.6361L12.2592 16.6533C12.2035 16.8037 12.0736 16.9004 11.9281 16.9004H11.0321C10.9184 16.9004 10.8144 16.8418 10.746 16.7412C10.6659 16.624 10.6503 16.4727 10.7035 16.3379L13.0907 10.3379C13.1483 10.1934 13.2772 10.0996 13.4193 10.0996H14.5712C14.7128 10.0996 14.8417 10.1934 14.8993 10.3379L17.2958 16.3379C17.3495 16.4727 17.3344 16.623 17.2543 16.7412C17.1859 16.8418 17.0814 16.9004 16.9677 16.9004H16.0253ZM13.0951 14.3486H14.8573L13.9823 11.998L13.0951 14.3486ZM16.5733 9C16.778 9 16.9443 8.82464 16.9443 8.61041V7.90724C16.9443 7.69301 16.778 7.51851 16.5733 7.51851H13.3948L16.8488 3.50422C16.9106 3.43252 16.9443 3.34009 16.9443 3.2442V2.4892C16.9443 2.27497 16.778 2.09961 16.5733 2.09961H11.5448C11.3401 2.09961 11.1738 2.27497 11.1738 2.4892V3.182C11.1738 3.39623 11.3401 3.57159 11.5448 3.57159H14.6054L11.1514 7.58328C11.0896 7.65584 11.0555 7.74914 11.0555 7.84502V8.61039C11.0555 8.82462 11.2218 8.99998 11.4265 8.99998L16.5733 9ZM6.49989 3H5.49989C5.22375 3 4.99989 3.22386 4.99989 3.5V12.8887H2.54298C2.06964 12.8887 1.86129 13.4853 2.23172 13.78L5.68863 16.5297C5.87083 16.6747 6.12895 16.6747 6.31115 16.5297L9.76806 13.78C10.1385 13.4853 9.93014 12.8887 9.4568 12.8887H6.99989V3.5C6.99989 3.22386 6.77603 3 6.49989 3Z" fill="currentColor"/>
</svg>
