<svg width="20" height="20" viewBox="0 0 20 20" fill="none" xmlns="http://www.w3.org/2000/svg">
<path d="M5.42922 9.11028H2.5C2.22386 9.11028 2 9.33414 2 9.61028V10.3753C2 10.6514 2.22386 10.8753 2.5 10.8753L5.42922 10.8753V12.5521C5.42922 12.9404 5.91521 13.1434 6.20863 12.8609L8.86762 10.3017C9.04413 10.1318 9.04413 9.85382 8.86762 9.68393L6.20863 7.12463C5.91521 6.84223 5.42922 7.04524 5.42922 7.43355L5.42922 9.11028Z" fill="currentColor"/>
<path d="M7.90582 6.70847C8.10108 6.90373 8.41766 6.90373 8.61293 6.70847L10.0001 5.32127L14.6716 9.99278L10.0001 14.6643L8.5998 13.264C8.40454 13.0687 8.08795 13.0687 7.89269 13.264L7.18558 13.9711C6.99032 14.1663 6.99032 14.4829 7.18558 14.6782L9.64657 17.1392C9.84184 17.3344 10.1584 17.3344 10.3537 17.1392L17.1465 10.3463C17.3418 10.1511 17.3418 9.83449 17.1465 9.63923L10.3537 2.8464C10.1584 2.65114 9.84184 2.65114 9.64657 2.8464L7.19871 5.29426C7.00345 5.48952 7.00345 5.8061 7.19871 6.00137L7.90582 6.70847Z" fill="currentColor"/>
</svg>
