<svg width="20" height="20" viewBox="0 0 20 20" fill="none" xmlns="http://www.w3.org/2000/svg">
<path d="M11.7242 3.72414C11.7242 4.67636 10.9522 5.44828 10 5.44828C9.0478 5.44828 8.27588 4.67636 8.27588 3.72414C8.27588 2.77192 9.0478 2 10 2C10.9522 2 11.7242 2.77192 11.7242 3.72414Z" fill="currentColor"/>
<path d="M15.6567 6.78127C15.3313 7.10724 14.8981 7.28666 14.4375 7.28666C13.9768 7.28666 13.5441 7.10724 13.2187 6.78127C12.8927 6.45584 12.7139 6.02319 12.7139 5.56252C12.7139 5.10185 12.8927 4.66866 13.2187 4.34323C13.5441 4.01726 13.9768 3.83838 14.4375 3.83838C14.8981 3.83838 15.3313 4.01726 15.6567 4.34323C15.9827 4.66866 16.1621 5.10185 16.1621 5.56252C16.1621 6.02319 15.9827 6.45584 15.6567 6.78127Z" fill="currentColor"/>
<path d="M16.2759 11.7242C17.2281 11.7242 18 10.9522 18 10C18 9.0478 17.2281 8.27588 16.2759 8.27588C15.3237 8.27588 14.5518 9.0478 14.5518 10C14.5518 10.9522 15.3237 11.7242 16.2759 11.7242Z" fill="currentColor"/>
<path d="M13.2187 13.2188C13.5441 12.8928 13.9768 12.7139 14.4375 12.7139C14.8981 12.7139 15.3313 12.8928 15.6567 13.2188C15.9827 13.5442 16.1621 13.9769 16.1621 14.4375C16.1621 14.8982 15.9827 15.3314 15.6567 15.6568C15.3313 15.9828 14.8981 16.1622 14.4375 16.1622C13.9768 16.1622 13.5441 15.9828 13.2187 15.6568C12.8927 15.3314 12.7139 14.8982 12.7139 14.4375C12.7139 13.9769 12.8927 13.5442 13.2187 13.2188Z" fill="currentColor"/>
<path d="M10 18C10.9522 18 11.7242 17.2281 11.7242 16.2758C11.7242 15.3236 10.9522 14.5517 10 14.5517C9.0478 14.5517 8.27588 15.3236 8.27588 16.2758C8.27588 17.2281 9.0478 18 10 18Z" fill="currentColor"/>
<path d="M4.34323 13.2188C4.66866 12.8928 5.10185 12.7139 5.56251 12.7139C6.02318 12.7139 6.45583 12.8928 6.78126 13.2188C7.10723 13.5442 7.28665 13.9769 7.28665 14.4375C7.28665 14.8982 7.10723 15.3314 6.78126 15.6568C6.45583 15.9828 6.02317 16.1622 5.56251 16.1622C5.10185 16.1622 4.66866 15.9828 4.34323 15.6568C4.01726 15.3314 3.83838 14.8982 3.83838 14.4375C3.83838 13.9769 4.01726 13.5442 4.34323 13.2188Z" fill="currentColor"/>
<path d="M3.72414 11.7242C4.67636 11.7242 5.44828 10.9522 5.44828 10C5.44828 9.0478 4.67636 8.27588 3.72414 8.27588C2.77192 8.27588 2 9.0478 2 10C2 10.9522 2.77192 11.7242 3.72414 11.7242Z" fill="currentColor"/>
<path d="M4.34323 4.34323C4.66866 4.01726 5.10185 3.83838 5.56251 3.83838C6.02318 3.83838 6.45583 4.01726 6.78126 4.34323C7.10723 4.66866 7.28665 5.10185 7.28665 5.56252C7.28665 6.02319 7.10723 6.45584 6.78126 6.78127C6.45583 7.10724 6.02317 7.28666 5.56251 7.28666C5.10185 7.28666 4.66866 7.10724 4.34323 6.78127C4.01726 6.45584 3.83838 6.02319 3.83838 5.56252C3.83838 5.10185 4.01726 4.66866 4.34323 4.34323Z" fill="currentColor"/>
</svg>
