<svg width="20" height="20" viewBox="0 0 20 20" fill="none" xmlns="http://www.w3.org/2000/svg">
<path d="M17.8561 8.64246C18.1379 8.36756 17.9824 7.88904 17.593 7.8324L12.8876 7.14881C12.733 7.12635 12.5992 7.02918 12.5301 6.88904L10.4258 2.62537C10.2516 2.27234 9.74834 2.27234 9.57421 2.62537L7.4699 6.88904C7.40075 7.02918 7.26702 7.12634 7.11242 7.14881L2.40703 7.8324C2.01756 7.88904 1.86211 8.36756 2.14391 8.64246L5.54871 11.9613C5.66065 12.0704 5.71172 12.2274 5.6853 12.3815L4.88154 17.0678C4.81501 17.4557 5.22212 17.7516 5.57044 17.5685L9.77905 15.3558C9.91736 15.2831 10.0826 15.2831 10.2209 15.3558L14.4296 17.5685C14.7779 17.7516 15.185 17.4557 15.1185 17.0678L14.3147 12.3815C14.2883 12.2274 14.3394 12.0704 14.4513 11.9613L16.1537 10.3019L17.8561 8.64246ZM13.0552 10.5282C12.4697 11.1014 12.2046 11.9217 12.3447 12.7245L12.625 14.3602L11.1519 13.5858C10.8003 13.4003 10.4009 13.3016 9.99999 13.3016C9.59911 13.3016 9.1997 13.4003 8.84472 13.5878L7.37499 14.3602L7.65624 12.7196C7.7954 11.9218 7.53026 11.1014 6.94726 10.5311L5.75292 9.36707L7.40038 9.12781C8.20897 9.01062 8.90673 8.50183 9.2661 7.76843L9.99999 6.28113L10.7368 7.77332C11.0933 8.50184 11.791 9.01062 12.6006 9.12781L14.2471 9.36707L13.0552 10.5282Z" fill="currentColor"/>
</svg>
