<svg width="20" height="20" viewBox="0 0 20 20" fill="none" xmlns="http://www.w3.org/2000/svg">
<path d="M5.08727 2.28877L4.28599 3.91234C4.25965 3.9657 4.20874 4.00269 4.14985 4.01125L2.35813 4.2716C2.20983 4.29315 2.15061 4.4754 2.25792 4.58L3.55442 5.84377C3.59703 5.88531 3.61648 5.94515 3.60642 6.00381L3.30036 7.78829C3.27503 7.93599 3.43006 8.04863 3.5627 7.97889L5.16526 7.13637C5.21793 7.10868 5.28086 7.10868 5.33353 7.13637L6.93609 7.97889C7.06873 8.04863 7.22376 7.93599 7.19843 7.78829L6.89237 6.00381C6.88231 5.94516 6.90176 5.88531 6.94437 5.84377L8.24087 4.58C8.34818 4.4754 8.28897 4.29315 8.14066 4.2716L6.34894 4.01125C6.29005 4.00269 6.23914 3.96571 6.2128 3.91234L5.41155 2.28877C5.34523 2.15439 5.15359 2.15439 5.08727 2.28877Z" fill="currentColor"/>
<path d="M9.7309 7.35488L8.40407 10.0433C8.36046 10.1317 8.27616 10.1929 8.17864 10.2071L5.21175 10.6382C4.96618 10.6739 4.86813 10.9757 5.04582 11.1489L7.19268 13.2416C7.26324 13.3104 7.29544 13.4095 7.27879 13.5066L6.77199 16.4615C6.73004 16.7061 6.98675 16.8926 7.2064 16.7771L9.86006 15.382C9.94728 15.3361 10.0515 15.3361 10.1387 15.382L12.7924 16.7771C13.012 16.8926 13.2687 16.7061 13.2268 16.4615L12.72 13.5066C12.7033 13.4095 12.7355 13.3104 12.8061 13.2416L14.9529 11.1489C15.1306 10.9757 15.0326 10.6739 14.787 10.6382L11.8201 10.2071C11.7226 10.1929 11.6383 10.1317 11.5947 10.0433L10.2679 7.35488C10.158 7.13236 9.84073 7.13236 9.7309 7.35488Z" fill="currentColor"/>
<path d="M14.7089 5.55711L15.3664 4.22469C15.4209 4.1144 15.5781 4.1144 15.6326 4.22469L16.2901 5.55711C16.3118 5.6009 16.3535 5.63126 16.4019 5.63828L17.8723 5.85194C17.994 5.86963 18.0426 6.0192 17.9545 6.10504L16.8905 7.14219C16.8556 7.17628 16.8396 7.2254 16.8479 7.27353L17.099 8.73801C17.1198 8.85922 16.9926 8.95166 16.8837 8.89443L15.5686 8.203C15.5253 8.18027 15.4737 8.18027 15.4305 8.203L14.1153 8.89443C14.0064 8.95166 13.8792 8.85923 13.9 8.73801L14.1511 7.27353C14.1594 7.22538 14.1434 7.17628 14.1085 7.14219L13.0445 6.10504C12.9564 6.01919 13.005 5.86963 13.1267 5.85194L14.5971 5.63828C14.6455 5.63126 14.6873 5.6009 14.7089 5.55711Z" fill="currentColor"/>
</svg>
