<svg width="20" height="20" viewBox="0 0 20 20" fill="none" xmlns="http://www.w3.org/2000/svg">
<path d="M13.5 5H4.5C4.22386 5 4 5.22386 4 5.5V6.5C4 6.77614 4.22386 7 4.5 7H13.5C13.7761 7 14 6.77614 14 6.5V5.5C14 5.22386 13.7761 5 13.5 5Z" fill="currentColor"/>
<path d="M15.5 9H6.5C6.22386 9 6 9.22386 6 9.5V10.5C6 10.7761 6.22386 11 6.5 11H15.5C15.7761 11 16 10.7761 16 10.5V9.5C16 9.22386 15.7761 9 15.5 9Z" fill="currentColor"/>
<path d="M4.5 13H13.5C13.7761 13 14 13.2239 14 13.5V14.5C14 14.7761 13.7761 15 13.5 15H4.5C4.22386 15 4 14.7761 4 14.5V13.5C4 13.2239 4.22386 13 4.5 13Z" fill="currentColor"/>
</svg>
