<svg width="20" height="20" viewBox="0 0 20 20" fill="none" xmlns="http://www.w3.org/2000/svg">
<path d="M13.0247 5.302C12.1339 4.72839 11.0908 4.40381 9.99983 4.40381C7.07413 4.40381 4.66543 6.66015 4.42318 9.52423C4.40074 9.78959 4.19415 10 3.92784 10H2.92619C2.64121 10 2.40156 9.76033 2.42103 9.47602C2.69113 5.53099 5.98746 2.40381 9.99982 2.40381C11.6297 2.40381 13.1835 2.93042 14.4642 3.86243L16.1861 2.14057C16.4864 1.84028 16.9998 2.05296 16.9998 2.47762V7.52338C16.9998 7.78661 16.7864 8 16.5232 8H11.4774C11.0528 8 10.8401 7.48656 11.1404 7.18628L13.0247 5.302Z" fill="currentColor"/>
<path d="M15.5766 10.4758C15.5991 10.2104 15.8057 10 16.072 10H17.0736C17.3586 10 17.5983 10.2397 17.5788 10.524C17.3087 14.469 14.0124 17.5962 10 17.5962C8.36383 17.5962 6.81604 17.0605 5.54022 16.1329L3.81371 17.8594C3.51344 18.1597 3 17.9471 3 17.5224V12.4766C3 12.2134 3.21339 12 3.47662 12H8.52241C8.94704 12 9.1597 12.5134 8.85944 12.8137L6.97492 14.6982C7.86225 15.2696 8.90406 15.5962 10 15.5962C12.9257 15.5962 15.3344 13.3398 15.5766 10.4758Z" fill="currentColor"/>
</svg>
