<svg width="20" height="20" viewBox="0 0 20 20" fill="none" xmlns="http://www.w3.org/2000/svg">
<path d="M10.9486 4.06627C10.6151 4.04845 10.3341 4.4381 10.4115 4.77379C10.9634 7.1671 11.8 10.8967 11.8077 11.5508C11.8193 12.527 11.0373 13.3278 10.0611 13.3393C9.08494 13.3508 8.28416 12.569 8.27257 11.5926C8.2647 10.9269 9.04021 7.05236 9.53459 4.6538C9.59807 4.34557 9.36064 4.0526 9.0493 4.06213L9.05516 4.05664C7.57909 4.23303 6.22411 4.85266 5.12358 5.77112L4.68742 6.16736L4.68528 6.16724C3.4442 7.37377 2.60246 8.98888 2.4099 10.7745C2.22087 12.5278 2.61516 14.1774 3.43944 15.5441C3.61492 15.8349 3.94249 16.0001 4.28221 16.0001H15.717C16.0566 16.0001 16.3841 15.8351 16.5596 15.5443C17.2475 14.404 17.636 13.0666 17.636 11.6365C17.636 7.73691 14.7203 4.5338 10.9486 4.06627Z" fill="currentColor"/>
</svg>
