<svg width="20" height="20" viewBox="0 0 20 20" fill="none" xmlns="http://www.w3.org/2000/svg">
<path fill-rule="evenodd" clip-rule="evenodd" d="M14.634 6.55334C14.7894 6.24169 15.2643 6.11804 15.5077 6.35461C16.823 7.72596 17.636 9.58299 17.636 11.6362C17.636 13.0664 17.2475 14.4038 16.5596 15.5441C16.3841 15.8348 16.0566 15.9999 15.717 15.9999H4.28221C3.94249 15.9999 3.61492 15.8347 3.43944 15.5438C2.61516 14.1771 2.22087 12.5276 2.4099 10.7743C2.60246 8.98864 3.4442 7.37353 4.68528 6.16699L4.68742 6.16711L5.12358 5.77087C6.22416 4.85241 7.57914 4.23278 9.05528 4.05639C10.9123 3.83459 12.6504 4.28527 14.0746 5.18615C14.271 5.3861 14.2616 5.71936 14.0337 5.90295L14.0327 5.90382L8.64566 10.4534C8.03348 11.214 8.1538 12.3268 8.91424 12.939C9.6748 13.5511 10.7876 13.4308 11.3997 12.6703C11.8098 12.1606 13.5372 8.75097 14.634 6.55334ZM5.8955 9.04357C6.12218 9.18176 6.40532 9.10986 6.56731 8.89953C7.34874 7.88537 8.53759 7.28991 9.82964 7.28991H9.95964C10.1782 7.10769 10.4185 6.90925 10.6819 6.69176C10.9245 6.4914 11.1867 6.27486 11.4696 6.03991C10.9396 5.86987 10.3896 5.78991 9.82964 5.78991C8.02538 5.78991 6.37066 6.63684 5.31176 8.07336C5.14232 8.30334 5.2238 8.63427 5.4677 8.78283L5.8955 9.04357Z" fill="currentColor"/>
</svg>
