<svg width="20" height="20" viewBox="0 0 20 20" fill="none" xmlns="http://www.w3.org/2000/svg">
<path d="M15.2786 7.07032L17.7205 4.62843C17.9782 5.23317 18.072 5.92432 17.941 6.6482C17.7067 7.9419 16.7008 9.01441 15.4344 9.36841C14.5561 9.61378 13.7367 9.4939 13.0322 9.16651C11.6511 10.9602 7.6211 15.8367 6.41407 16.913C5.58973 17.6482 4.36671 17.6941 3.5857 16.913C2.80463 16.132 2.85047 14.9089 3.5857 14.0845C4.25306 13.3362 6.3808 11.5032 8.32923 9.88868L5.46961 7.02906L3.83057 7.00672L2.11426 3.95179L3.45288 2.61317L6.50782 4.32947L6.53016 5.96851L9.49372 8.93213C10.2291 8.33349 10.8792 7.8153 11.3321 7.46655C11.0057 6.76355 10.8853 5.94678 11.1287 5.07019C11.4805 3.80249 12.5523 2.79443 13.8465 2.55835C14.5714 2.42627 15.2642 2.52002 15.8702 2.77808L13.4282 5.21998C13.233 5.41529 13.233 5.73194 13.4283 5.92713L14.5715 7.07032C14.7668 7.26563 15.0833 7.26563 15.2786 7.07032Z" fill="currentColor"/>
<path d="M10.8701 14.1887C11.8001 13.0988 12.7101 11.9788 13.4201 11.0988L16.7101 14.3788C17.1001 14.7688 17.1001 15.3987 16.7101 15.7888L15.2901 17.2087C14.9001 17.5988 14.2701 17.5988 13.8801 17.2087L10.8701 14.1887Z" fill="currentColor"/>
</svg>
