<svg width="20" height="20" viewBox="0 0 20 20" fill="none" xmlns="http://www.w3.org/2000/svg">
<path d="M17.2786 14.3651C17.2201 14.303 17.1952 14.2178 17.2072 14.132C17.2308 13.9633 17.2434 13.7895 17.2434 13.6108V13.3892C17.2434 13.2105 17.2308 13.0367 17.2072 12.868C17.1952 12.7822 17.2201 12.6969 17.2786 12.6348L17.9229 11.9505C18.0078 11.8603 18.0245 11.7226 17.9637 11.6135L17.5586 10.8865C17.4978 10.7774 17.3744 10.7235 17.2565 10.7546L16.4287 10.9731C16.3435 10.9955 16.2557 10.9713 16.1888 10.9122C15.8784 10.6378 15.5089 10.4268 15.0925 10.293C15.0049 10.2648 14.9353 10.1957 14.9105 10.1043L14.6664 9.20511C14.6335 9.08381 14.5268 9.00001 14.4052 9.00001H13.595C13.4734 9.00001 13.3666 9.08382 13.3337 9.20511L13.0896 10.1042C13.0648 10.1957 12.9952 10.2648 12.9076 10.293C12.4911 10.4268 12.1215 10.6378 11.8111 10.9122C11.7443 10.9713 11.6564 10.9955 11.5713 10.9731L10.7436 10.7546C10.6258 10.7235 10.5023 10.7774 10.4415 10.8865L10.0364 11.6135C9.97564 11.7226 9.99231 11.8603 10.0772 11.9505L10.7215 12.6348C10.78 12.697 10.8049 12.7821 10.7929 12.868C10.7693 13.0366 10.7567 13.2104 10.7567 13.3892V13.6108C10.7567 13.7895 10.7693 13.9633 10.7929 14.1319C10.8049 14.2178 10.78 14.303 10.7215 14.3651L10.0772 15.0494C9.99231 15.1396 9.97564 15.2773 10.0364 15.3864L10.4415 16.1135C10.5023 16.2226 10.6258 16.2765 10.7436 16.2454L11.5715 16.0269C11.6566 16.0044 11.7445 16.0286 11.8113 16.0877C12.1217 16.3622 12.4912 16.5731 12.9077 16.707C12.9952 16.7352 13.0648 16.8043 13.0896 16.8957L13.3337 17.7949C13.3666 17.9162 13.4734 18 13.595 18H14.4052C14.5268 18 14.6336 17.9162 14.6665 17.7949L14.9105 16.8957C14.9353 16.8043 15.005 16.7352 15.0925 16.7071C15.509 16.5732 15.8786 16.3622 16.189 16.0878C16.2558 16.0287 16.3437 16.0045 16.4288 16.027L17.2565 16.2454C17.3744 16.2765 17.4978 16.2226 17.5586 16.1135L17.9637 15.3865C18.0245 15.2774 18.0078 15.1397 17.9229 15.0494L17.2786 14.3651ZM15.4946 13.551C15.4946 14.423 14.8771 15.0552 14 15.0552C13.123 15.0552 12.5055 14.4228 12.5055 13.551V13.4489C12.5055 12.577 13.123 11.9448 14 11.9448C14.8771 11.9448 15.4946 12.5772 15.4946 13.4489V13.551ZM8.99003 12.98L9.26005 13.27V13.73L8.98002 14.02C8.72001 14.3 8.56004 14.64 8.52006 15H2.71005C2.26004 15 1.93002 14.6 2.01004 14.17L2.54001 11.56C2.58005 11.4 2.66001 11.26 2.79001 11.16C3.37003 10.71 5.18002 9.44 7.50003 9.44C8.21005 9.44 8.87003 9.56 9.46005 9.73999C9.33005 9.85999 9.22 10 9.13003 10.16L8.72 10.89C8.35 11.57 8.45005 12.41 8.99003 12.98ZM5.02139 5.16225C5.02139 3.59507 6.03989 2.5 7.50003 2.5C8.96017 2.5 9.97867 3.59507 9.97867 5.16225V5.3933C9.97867 6.96057 8.96017 8.05555 7.50003 8.05555C6.03989 8.05555 5.02139 6.96057 5.02139 5.3933V5.16225Z" fill="currentColor"/>
</svg>
