<svg width="20" height="20" viewBox="0 0 20 20" fill="none" xmlns="http://www.w3.org/2000/svg">
<path d="M18 8.28012V16.5001C18 16.7801 17.78 17.0001 17.5 17.0001H15V10.5001C15 10.2201 14.78 10.0001 14.5 10.0001H5.5C5.21997 10.0001 5 10.2201 5 10.5001V17.0001H2.5C2.21997 17.0001 2 16.7801 2 16.5001V8.00009L9.71002 3.21005C9.88 3.08005 10.12 3.08005 10.29 3.21005L17.76 7.85006C17.91 7.94003 18 8.11007 18 8.28011V8.28012ZM13.5 13.5001V11.5001H6.5V13.5001H13.5ZM6.5 15.0001V17.0001H13.5V15.0001H6.5Z" fill="currentColor"/>
</svg>
