<svg width="20" height="20" viewBox="0 0 20 20" fill="none" xmlns="http://www.w3.org/2000/svg">
<path d="M16.5 2.9895H3.5C3.22388 2.9895 3 3.21338 3 3.4895V16.4895C3 16.7656 3.22388 16.9895 3.5 16.9895H16.5C16.7761 16.9895 17 16.7656 17 16.4895V3.4895C17 3.21338 16.7761 2.9895 16.5 2.9895ZM9 14.6C9 14.8209 8.82092 15 8.59998 15H5.40002C5.17907 15 5 14.8209 5 14.6V11.3999C5 11.1791 5.17908 11 5.40002 11H6.20001C6.4209 11 6.59997 11.1791 6.59997 11.3999V13.3999H8.59997C8.82092 13.3999 8.99999 13.5791 8.99999 13.8001L9 14.6ZM9 6.19996C9 6.42091 8.82092 6.59998 8.59998 6.59998H6.59998V8.59998C6.59998 8.82093 6.4209 9 6.20002 9H5.40003C5.17908 9 5.00001 8.82092 5.00001 8.59998V5.3999C5.00001 5.17907 5.17909 5 5.40003 5H8.59998C8.82093 5 9 5.17908 9 5.3999V6.19996ZM15 14.6C15 14.8209 14.8209 15 14.6 15H11.4C11.1791 15 11 14.8209 11 14.6V13.8001C11 13.5791 11.1791 13.3999 11.4 13.3999H13.4V11.3999C13.4 11.1791 13.5791 11 13.8 11H14.6C14.8209 11 15 11.1791 15 11.3999V14.6ZM15 8.59998C15 8.82093 14.8209 9 14.6 9H13.8C13.5791 9 13.4 8.82092 13.4 8.59998V6.59998H11.4C11.1791 6.59998 11 6.4209 11 6.19996V5.39991C11 5.17908 11.1791 5.00001 11.4 5.00001H14.6C14.8209 5.00001 15 5.17909 15 5.39991V8.59998Z" fill="currentColor"/>
</svg>
